<svg width="238" height="95" viewBox="0 0 238 95" fill="none" xmlns="http://www.w3.org/2000/svg">
<rect width="238" height="237" rx="12" fill="#18181B"/>
<path d="M16.8849 20.8182H19.5398L22.3438 27.6591H22.4631L25.267 20.8182H27.9219V31H25.8338V24.3729H25.7493L23.1143 30.9503H21.6925L19.0575 24.348H18.973V31H16.8849V20.8182ZM33.1358 31.1491C32.3503 31.1491 31.6742 30.9901 31.1074 30.6719C30.544 30.3504 30.1098 29.8963 29.8049 29.3097C29.4999 28.7197 29.3475 28.022 29.3475 27.2166C29.3475 26.4311 29.4999 25.7417 29.8049 25.1484C30.1098 24.5552 30.539 24.0928 31.0925 23.7614C31.6493 23.4299 32.3023 23.2642 33.0513 23.2642C33.5551 23.2642 34.0241 23.3454 34.4583 23.5078C34.8958 23.6669 35.2769 23.9072 35.6017 24.2287C35.9299 24.5502 36.1851 24.9545 36.3674 25.4418C36.5497 25.9257 36.6408 26.4924 36.6408 27.142V27.7237H30.1926V26.4112H34.6472C34.6472 26.1063 34.5809 25.8362 34.4483 25.6009C34.3158 25.3655 34.1318 25.1816 33.8965 25.049C33.6645 24.9131 33.3944 24.8452 33.0861 24.8452C32.7646 24.8452 32.4796 24.9197 32.231 25.0689C31.9857 25.2147 31.7935 25.4119 31.6543 25.6605C31.5151 25.9058 31.4438 26.1792 31.4405 26.4808V27.7287C31.4405 28.1065 31.5101 28.433 31.6493 28.7081C31.7918 28.9832 31.9924 29.1953 32.2509 29.3445C32.5094 29.4936 32.816 29.5682 33.1706 29.5682C33.406 29.5682 33.6214 29.535 33.8169 29.4688C34.0125 29.4025 34.1799 29.303 34.3191 29.1705C34.4583 29.0379 34.5643 28.8755 34.6373 28.6832L36.5961 28.8125C36.4966 29.2831 36.2928 29.6941 35.9846 30.0455C35.6796 30.3935 35.2852 30.6652 34.8013 30.8608C34.3207 31.053 33.7656 31.1491 33.1358 31.1491ZM40.2005 31.1442C39.7132 31.1442 39.2791 31.0597 38.8979 30.8906C38.5167 30.7183 38.2151 30.4647 37.9931 30.13C37.7743 29.7919 37.665 29.371 37.665 28.8672C37.665 28.4429 37.7428 28.0866 37.8986 27.7983C38.0544 27.5099 38.2665 27.2779 38.535 27.1023C38.8034 26.9266 39.1084 26.794 39.4498 26.7045C39.7944 26.6151 40.1557 26.5521 40.5336 26.5156C40.9777 26.4692 41.3356 26.4261 41.6074 26.3864C41.8792 26.3433 42.0764 26.2803 42.199 26.1974C42.3217 26.1146 42.383 25.992 42.383 25.8295V25.7997C42.383 25.4848 42.2836 25.2412 42.0847 25.0689C41.8891 24.8965 41.6107 24.8104 41.2495 24.8104C40.8683 24.8104 40.565 24.8949 40.3397 25.0639C40.1143 25.2296 39.9651 25.4384 39.8922 25.6903L37.9334 25.5312C38.0328 25.0672 38.2284 24.6662 38.5201 24.3281C38.8117 23.9867 39.1879 23.7249 39.6486 23.5426C40.1126 23.357 40.6496 23.2642 41.2594 23.2642C41.6837 23.2642 42.0897 23.3139 42.4775 23.4134C42.8685 23.5128 43.2149 23.6669 43.5165 23.8757C43.8214 24.0845 44.0617 24.353 44.2374 24.6811C44.4131 25.0059 44.5009 25.3954 44.5009 25.8494V31H42.4924V29.9411H42.4327C42.3101 30.1797 42.146 30.3902 41.9405 30.5724C41.735 30.7514 41.4881 30.8923 41.1998 30.995C40.9114 31.0945 40.5783 31.1442 40.2005 31.1442ZM40.807 29.6825C41.1185 29.6825 41.3936 29.6212 41.6323 29.4986C41.8709 29.3726 42.0582 29.2036 42.1941 28.9915C42.33 28.7794 42.3979 28.5391 42.3979 28.2706V27.4602C42.3316 27.5033 42.2405 27.5431 42.1245 27.5795C42.0118 27.6127 41.8842 27.6442 41.7417 27.674C41.5991 27.7005 41.4566 27.7254 41.3141 27.7486C41.1716 27.7685 41.0423 27.7867 40.9263 27.8033C40.6777 27.8397 40.4606 27.8977 40.275 27.9773C40.0894 28.0568 39.9453 28.1645 39.8425 28.3004C39.7398 28.433 39.6884 28.5987 39.6884 28.7976C39.6884 29.0859 39.7928 29.3063 40.0016 29.4588C40.2137 29.608 40.4822 29.6825 40.807 29.6825ZM48.2619 20.8182V31H46.144V20.8182H48.2619Z" fill="#FCFCFC"/>
<rect x="54" y="16" width="20" height="20" rx="10" fill="#26272B"/>
<path d="M65.5043 21.2727V30H63.6591V23.0241H63.608L61.6094 24.277V22.6406L63.7699 21.2727H65.5043Z" fill="#FCFCFC"/>
<path d="M201.98 30.1193C201.344 30.1193 200.777 30.0099 200.28 29.7912C199.786 29.5696 199.395 29.2656 199.108 28.8793C198.824 28.4901 198.678 28.0412 198.669 27.5327H200.527C200.538 27.7457 200.608 27.9332 200.736 28.0952C200.866 28.2543 201.04 28.3778 201.256 28.4659C201.472 28.554 201.714 28.598 201.984 28.598C202.266 28.598 202.514 28.5483 202.73 28.4489C202.946 28.3494 203.115 28.2116 203.237 28.0355C203.359 27.8594 203.42 27.6562 203.42 27.4261C203.42 27.1932 203.355 26.9872 203.224 26.8082C203.097 26.6264 202.912 26.4844 202.67 26.3821C202.432 26.2798 202.148 26.2287 201.818 26.2287H201.004V24.8736H201.818C202.097 24.8736 202.342 24.8253 202.555 24.7287C202.771 24.6321 202.939 24.4986 203.058 24.3281C203.178 24.1548 203.237 23.9531 203.237 23.723C203.237 23.5043 203.185 23.3125 203.08 23.1477C202.977 22.9801 202.832 22.8494 202.645 22.7557C202.46 22.6619 202.244 22.6151 201.997 22.6151C201.747 22.6151 201.518 22.6605 201.311 22.7514C201.104 22.8395 200.938 22.9659 200.812 23.1307C200.688 23.2955 200.621 23.4886 200.612 23.7102H198.844C198.852 23.2074 198.996 22.7642 199.274 22.3807C199.553 21.9972 199.928 21.6974 200.399 21.4815C200.874 21.2628 201.409 21.1534 202.006 21.1534C202.608 21.1534 203.135 21.2628 203.587 21.4815C204.038 21.7003 204.389 21.9957 204.639 22.3679C204.892 22.7372 205.017 23.152 205.014 23.6122C205.017 24.1009 204.865 24.5085 204.558 24.8352C204.254 25.1619 203.858 25.3693 203.369 25.4574V25.5256C204.011 25.608 204.5 25.831 204.835 26.1946C205.173 26.5554 205.341 27.0071 205.338 27.5497C205.341 28.0469 205.197 28.4886 204.908 28.875C204.621 29.2614 204.224 29.5653 203.719 29.7869C203.213 30.0085 202.634 30.1193 201.98 30.1193ZM209.852 30.1193C209.25 30.1193 208.713 30.0085 208.241 29.7869C207.772 29.5653 207.4 29.2599 207.125 28.8707C206.849 28.4815 206.706 28.0355 206.694 27.5327H208.484C208.504 27.8707 208.646 28.1449 208.91 28.3551C209.174 28.5653 209.488 28.6705 209.852 28.6705C210.142 28.6705 210.397 28.6065 210.619 28.4787C210.843 28.348 211.018 28.1676 211.143 27.9375C211.271 27.7045 211.335 27.4375 211.335 27.1364C211.335 26.8295 211.27 26.5597 211.139 26.3267C211.011 26.0937 210.833 25.9119 210.606 25.7812C210.379 25.6506 210.119 25.5838 209.826 25.581C209.571 25.581 209.322 25.6335 209.081 25.7386C208.842 25.8437 208.656 25.9872 208.522 26.169L206.882 25.875L207.295 21.2727H212.63V22.7812H208.816L208.591 24.9673H208.642C208.795 24.7514 209.027 24.5724 209.336 24.4304C209.646 24.2884 209.993 24.2173 210.376 24.2173C210.902 24.2173 211.37 24.3409 211.782 24.5881C212.194 24.8352 212.52 25.1747 212.758 25.6065C212.997 26.0355 213.115 26.5298 213.112 27.0895C213.115 27.6776 212.978 28.2003 212.703 28.6577C212.43 29.1122 212.048 29.4702 211.556 29.7315C211.068 29.9901 210.5 30.1193 209.852 30.1193ZM217.821 30.1918C217.088 30.1889 216.457 30.0085 215.929 29.6506C215.403 29.2926 214.998 28.7741 214.714 28.0952C214.433 27.4162 214.294 26.5994 214.297 25.6449C214.297 24.6932 214.437 23.8821 214.718 23.2116C215.002 22.5412 215.407 22.0312 215.933 21.6818C216.461 21.3295 217.091 21.1534 217.821 21.1534C218.551 21.1534 219.179 21.3295 219.704 21.6818C220.233 22.0341 220.639 22.5455 220.923 23.2159C221.207 23.8835 221.348 24.6932 221.345 25.6449C221.345 26.6023 221.203 27.4205 220.919 28.0994C220.637 28.7784 220.234 29.2969 219.708 29.6548C219.183 30.0128 218.554 30.1918 217.821 30.1918ZM217.821 28.6619C218.321 28.6619 218.72 28.4105 219.018 27.9077C219.316 27.4048 219.464 26.6506 219.461 25.6449C219.461 24.983 219.393 24.4318 219.257 23.9915C219.123 23.5511 218.933 23.2202 218.686 22.9986C218.441 22.777 218.153 22.6662 217.821 22.6662C217.324 22.6662 216.926 22.9148 216.627 23.4119C216.329 23.9091 216.179 24.6534 216.176 25.6449C216.176 26.3153 216.243 26.875 216.376 27.3239C216.512 27.7699 216.704 28.1051 216.951 28.3295C217.199 28.5511 217.488 28.6619 217.821 28.6619Z" fill="#FCFCFC"/>
<rect opacity="0.3" width="206" height="1" transform="matrix(1 0 0 -1 16 53)" fill="#3F3F46"/>
<path d="M22.8011 76.3636C22.7415 75.8598 22.4995 75.4688 22.0753 75.1903C21.651 74.9119 21.1307 74.7727 20.5142 74.7727C20.0634 74.7727 19.669 74.8456 19.331 74.9915C18.9962 75.1373 18.7344 75.3378 18.5455 75.593C18.3598 75.8482 18.267 76.1383 18.267 76.4631C18.267 76.7348 18.3317 76.9685 18.4609 77.1641C18.5935 77.3563 18.7625 77.517 18.968 77.6463C19.1735 77.7723 19.389 77.8767 19.6143 77.9595C19.8397 78.0391 20.0469 78.1037 20.2358 78.1534L21.2699 78.4318C21.535 78.5014 21.83 78.5975 22.1548 78.7202C22.483 78.8428 22.7962 79.0102 23.0945 79.2223C23.3961 79.4311 23.6446 79.6996 23.8402 80.0277C24.0357 80.3558 24.1335 80.7585 24.1335 81.2358C24.1335 81.786 23.9893 82.2831 23.701 82.7273C23.416 83.1714 22.9983 83.5244 22.4482 83.7862C21.9013 84.0481 21.2367 84.179 20.4545 84.179C19.7254 84.179 19.094 84.0613 18.5604 83.826C18.0301 83.5907 17.6125 83.2625 17.3075 82.8416C17.0059 82.4207 16.8352 81.9318 16.7955 81.375H18.0682C18.1013 81.7595 18.2306 82.0777 18.456 82.3295C18.6847 82.5781 18.973 82.7637 19.321 82.8864C19.6723 83.0057 20.0502 83.0653 20.4545 83.0653C20.9252 83.0653 21.3478 82.9891 21.7223 82.8366C22.0968 82.6809 22.3935 82.4654 22.6122 82.1903C22.831 81.9119 22.9403 81.5871 22.9403 81.2159C22.9403 80.8778 22.8459 80.6027 22.657 80.3906C22.468 80.1785 22.2195 80.0062 21.9112 79.8736C21.603 79.741 21.2699 79.625 20.9119 79.5256L19.6591 79.1676C18.8636 78.9389 18.2339 78.6125 17.7699 78.1882C17.3059 77.764 17.0739 77.2088 17.0739 76.5227C17.0739 75.9527 17.228 75.4555 17.5362 75.0312C17.8478 74.6037 18.2654 74.2723 18.7891 74.0369C19.3161 73.7983 19.9044 73.679 20.554 73.679C21.2102 73.679 21.7936 73.7966 22.304 74.032C22.8144 74.264 23.2188 74.5821 23.517 74.9865C23.8187 75.3909 23.9777 75.8499 23.9943 76.3636H22.8011ZM27.7317 84L25.405 76.3636H26.638L28.2885 82.2102H28.3681L29.9988 76.3636H31.2516L32.8624 82.1903H32.9419L34.5925 76.3636H35.8255L33.4988 84H32.3453L30.6749 78.1335H30.5556L28.8851 84H27.7317ZM40.3185 84.1591C39.5827 84.1591 38.948 83.9967 38.4144 83.6719C37.8841 83.3438 37.4748 82.8864 37.1864 82.2997C36.9014 81.7098 36.7589 81.0237 36.7589 80.2415C36.7589 79.4593 36.9014 78.7699 37.1864 78.1733C37.4748 77.5734 37.8758 77.1061 38.3896 76.7713C38.9066 76.4332 39.5098 76.2642 40.1992 76.2642C40.5969 76.2642 40.9897 76.3305 41.3775 76.4631C41.7653 76.5956 42.1183 76.8111 42.4364 77.1094C42.7546 77.4044 43.0082 77.7955 43.1971 78.2827C43.386 78.7699 43.4805 79.3698 43.4805 80.0824V80.5795H37.5941V79.5653H42.2873C42.2873 79.1345 42.2011 78.75 42.0288 78.4119C41.8597 78.0739 41.6178 77.8071 41.3029 77.6115C40.9914 77.416 40.6235 77.3182 40.1992 77.3182C39.7319 77.3182 39.3275 77.4342 38.9862 77.6662C38.6481 77.8949 38.3879 78.1932 38.2056 78.5611C38.0233 78.929 37.9322 79.3234 37.9322 79.7443V80.4205C37.9322 80.9972 38.0316 81.486 38.2305 81.8871C38.4326 82.2848 38.7127 82.5881 39.0707 82.7969C39.4286 83.0024 39.8446 83.1051 40.3185 83.1051C40.6268 83.1051 40.9052 83.062 41.1538 82.9759C41.4057 82.8864 41.6228 82.7538 41.805 82.5781C41.9873 82.3991 42.1282 82.1771 42.2276 81.9119L43.3612 82.2301C43.2418 82.6146 43.0413 82.9527 42.7596 83.2443C42.4779 83.5327 42.1299 83.758 41.7156 83.9205C41.3013 84.0795 40.8356 84.1591 40.3185 84.1591ZM48.467 84.1591C47.7312 84.1591 47.0965 83.9967 46.5629 83.6719C46.0326 83.3438 45.6232 82.8864 45.3349 82.2997C45.0498 81.7098 44.9073 81.0237 44.9073 80.2415C44.9073 79.4593 45.0498 78.7699 45.3349 78.1733C45.6232 77.5734 46.0243 77.1061 46.538 76.7713C47.055 76.4332 47.6583 76.2642 48.3477 76.2642C48.7454 76.2642 49.1381 76.3305 49.5259 76.4631C49.9137 76.5956 50.2667 76.8111 50.5849 77.1094C50.9031 77.4044 51.1566 77.7955 51.3455 78.2827C51.5344 78.7699 51.6289 79.3698 51.6289 80.0824V80.5795H45.7425V79.5653H50.4357C50.4357 79.1345 50.3496 78.75 50.1772 78.4119C50.0082 78.0739 49.7662 77.8071 49.4513 77.6115C49.1398 77.416 48.7719 77.3182 48.3477 77.3182C47.8803 77.3182 47.476 77.4342 47.1346 77.6662C46.7965 77.8949 46.5363 78.1932 46.354 78.5611C46.1718 78.929 46.0806 79.3234 46.0806 79.7443V80.4205C46.0806 80.9972 46.18 81.486 46.3789 81.8871C46.5811 82.2848 46.8612 82.5881 47.2191 82.7969C47.5771 83.0024 47.993 83.1051 48.467 83.1051C48.7752 83.1051 49.0536 83.062 49.3022 82.9759C49.5541 82.8864 49.7712 82.7538 49.9535 82.5781C50.1358 82.3991 50.2766 82.1771 50.3761 81.9119L51.5096 82.2301C51.3903 82.6146 51.1897 82.9527 50.908 83.2443C50.6263 83.5327 50.2783 83.758 49.864 83.9205C49.4497 84.0795 48.984 84.1591 48.467 84.1591ZM56.7347 76.3636V77.358H52.7773V76.3636H56.7347ZM53.9308 74.5341H55.104V81.8125C55.104 82.1439 55.1521 82.3925 55.2482 82.5582C55.3477 82.7206 55.4736 82.83 55.6261 82.8864C55.7818 82.9394 55.9459 82.9659 56.1183 82.9659C56.2475 82.9659 56.3536 82.9593 56.4364 82.946C56.5193 82.9295 56.5856 82.9162 56.6353 82.9062L56.8739 83.9602C56.7944 83.9901 56.6834 84.0199 56.5408 84.0497C56.3983 84.0829 56.2177 84.0994 55.9989 84.0994C55.6675 84.0994 55.3427 84.0282 55.0245 83.8857C54.7096 83.7431 54.4478 83.526 54.239 83.2344C54.0335 82.9427 53.9308 82.5748 53.9308 82.1307V74.5341ZM62.4371 86.8636V76.3636H63.5707V77.5767H63.7099C63.796 77.4441 63.9154 77.2751 64.0678 77.0696C64.2236 76.8608 64.4457 76.6752 64.734 76.5128C65.0257 76.3471 65.4201 76.2642 65.9173 76.2642C66.5603 76.2642 67.127 76.425 67.6175 76.7464C68.1081 77.0679 68.4909 77.5237 68.766 78.1136C69.0411 78.7036 69.1786 79.3996 69.1786 80.2017C69.1786 81.0104 69.0411 81.7114 68.766 82.3047C68.4909 82.8946 68.1097 83.352 67.6225 83.6768C67.1353 83.9983 66.5735 84.1591 65.9371 84.1591C65.4466 84.1591 65.0539 84.0779 64.7589 83.9155C64.4639 83.7498 64.2369 83.5625 64.0778 83.3537C63.9187 83.1416 63.796 82.9659 63.7099 82.8267H63.6104V86.8636H62.4371ZM63.5906 80.1818C63.5906 80.7585 63.6751 81.2673 63.8441 81.7081C64.0131 82.1456 64.2601 82.4886 64.5849 82.7372C64.9097 82.9825 65.3074 83.1051 65.7781 83.1051C66.2686 83.1051 66.6779 82.9759 67.006 82.7173C67.3375 82.4555 67.5861 82.1042 67.7518 81.6634C67.9208 81.2192 68.0053 80.7254 68.0053 80.1818C68.0053 79.6449 67.9225 79.161 67.7567 78.7301C67.5943 78.2959 67.3474 77.9529 67.016 77.701C66.6879 77.4458 66.2752 77.3182 65.7781 77.3182C65.3008 77.3182 64.8997 77.4392 64.5749 77.6811C64.2501 77.9197 64.0049 78.2545 63.8391 78.6854C63.6734 79.1129 63.5906 79.6117 63.5906 80.1818ZM74.0707 84.1591C73.3813 84.1591 72.7764 83.995 72.256 83.6669C71.739 83.3388 71.3346 82.8797 71.043 82.2898C70.7546 81.6998 70.6104 81.0104 70.6104 80.2216C70.6104 79.4261 70.7546 78.7318 71.043 78.1385C71.3346 77.5452 71.739 77.0845 72.256 76.7564C72.7764 76.4283 73.3813 76.2642 74.0707 76.2642C74.7601 76.2642 75.3633 76.4283 75.8803 76.7564C76.4007 77.0845 76.805 77.5452 77.0934 78.1385C77.3851 78.7318 77.5309 79.4261 77.5309 80.2216C77.5309 81.0104 77.3851 81.6998 77.0934 82.2898C76.805 82.8797 76.4007 83.3388 75.8803 83.6669C75.3633 83.995 74.7601 84.1591 74.0707 84.1591ZM74.0707 83.1051C74.5943 83.1051 75.0252 82.9709 75.3633 82.7024C75.7013 82.4339 75.9516 82.081 76.114 81.6435C76.2764 81.206 76.3576 80.732 76.3576 80.2216C76.3576 79.7112 76.2764 79.2356 76.114 78.7947C75.9516 78.3539 75.7013 77.9976 75.3633 77.7259C75.0252 77.4541 74.5943 77.3182 74.0707 77.3182C73.547 77.3182 73.1161 77.4541 72.7781 77.7259C72.44 77.9976 72.1897 78.3539 72.0273 78.7947C71.8649 79.2356 71.7837 79.7112 71.7837 80.2216C71.7837 80.732 71.8649 81.206 72.0273 81.6435C72.1897 82.081 72.44 82.4339 72.7781 82.7024C73.1161 82.9709 73.547 83.1051 74.0707 83.1051ZM82.6429 76.3636V77.358H78.6855V76.3636H82.6429ZM79.839 74.5341H81.0123V81.8125C81.0123 82.1439 81.0603 82.3925 81.1564 82.5582C81.2559 82.7206 81.3818 82.83 81.5343 82.8864C81.69 82.9394 81.8541 82.9659 82.0265 82.9659C82.1557 82.9659 82.2618 82.9593 82.3446 82.946C82.4275 82.9295 82.4938 82.9162 82.5435 82.9062L82.7821 83.9602C82.7026 83.9901 82.5916 84.0199 82.449 84.0497C82.3065 84.0829 82.1259 84.0994 81.9071 84.0994C81.5757 84.0994 81.2509 84.0282 80.9327 83.8857C80.6178 83.7431 80.356 83.526 80.1472 83.2344C79.9417 82.9427 79.839 82.5748 79.839 82.1307V74.5341ZM86.655 84.179C86.1711 84.179 85.7319 84.0878 85.3375 83.9055C84.9431 83.7199 84.6299 83.4531 84.3979 83.1051C84.1659 82.7538 84.0499 82.3295 84.0499 81.8324C84.0499 81.3949 84.1361 81.0402 84.3084 80.7685C84.4808 80.4934 84.7111 80.2779 84.9995 80.1222C85.2878 79.9664 85.606 79.8504 85.954 79.7741C86.3053 79.6946 86.6583 79.6316 87.013 79.5852C87.477 79.5256 87.8532 79.4808 88.1415 79.451C88.4332 79.4179 88.6453 79.3632 88.7779 79.2869C88.9138 79.2107 88.9817 79.0781 88.9817 78.8892V78.8494C88.9817 78.3589 88.8475 77.9777 88.579 77.706C88.3139 77.4342 87.9112 77.2983 87.3709 77.2983C86.8108 77.2983 86.3716 77.4209 86.0534 77.6662C85.7353 77.9115 85.5115 78.1733 85.3823 78.4517L84.2686 78.054C84.4675 77.59 84.7327 77.2287 85.0641 76.9702C85.3989 76.7083 85.7634 76.526 86.1578 76.4233C86.5556 76.3172 86.9467 76.2642 87.3311 76.2642C87.5764 76.2642 87.8581 76.294 88.1763 76.3537C88.4978 76.41 88.8077 76.5277 89.106 76.7067C89.4076 76.8857 89.6578 77.1558 89.8567 77.517C90.0556 77.8783 90.155 78.3622 90.155 78.9688V84H88.9817V82.9659H88.9221C88.8425 83.1316 88.7099 83.3089 88.5243 83.4979C88.3387 83.6868 88.0918 83.8475 87.7836 83.9801C87.4753 84.1127 87.0991 84.179 86.655 84.179ZM86.834 83.125C87.298 83.125 87.6891 83.0339 88.0073 82.8516C88.3288 82.6693 88.5707 82.4339 88.7331 82.1456C88.8989 81.8572 88.9817 81.554 88.9817 81.2358V80.1619C88.932 80.2216 88.8226 80.2763 88.6536 80.326C88.4879 80.3724 88.2956 80.4138 88.0769 80.4503C87.8614 80.4834 87.651 80.5133 87.4455 80.5398C87.2433 80.563 87.0792 80.5829 86.9533 80.5994C86.6484 80.6392 86.3633 80.7038 86.0982 80.7933C85.8364 80.8795 85.6242 81.0104 85.4618 81.1861C85.3027 81.3584 85.2232 81.5937 85.2232 81.892C85.2232 82.2997 85.374 82.608 85.6756 82.8168C85.9805 83.0223 86.3667 83.125 86.834 83.125ZM95.6175 76.3636V77.358H91.6602V76.3636H95.6175ZM92.8136 74.5341H93.9869V81.8125C93.9869 82.1439 94.0349 82.3925 94.131 82.5582C94.2305 82.7206 94.3564 82.83 94.5089 82.8864C94.6647 82.9394 94.8287 82.9659 95.0011 82.9659C95.1303 82.9659 95.2364 82.9593 95.3192 82.946C95.4021 82.9295 95.4684 82.9162 95.5181 82.9062L95.7567 83.9602C95.6772 83.9901 95.5662 84.0199 95.4237 84.0497C95.2811 84.0829 95.1005 84.0994 94.8817 84.0994C94.5503 84.0994 94.2255 84.0282 93.9073 83.8857C93.5924 83.7431 93.3306 83.526 93.1218 83.2344C92.9163 82.9427 92.8136 82.5748 92.8136 82.1307V74.5341ZM100.403 84.1591C99.7133 84.1591 99.1084 83.995 98.5881 83.6669C98.071 83.3388 97.6667 82.8797 97.375 82.2898C97.0866 81.6998 96.9425 81.0104 96.9425 80.2216C96.9425 79.4261 97.0866 78.7318 97.375 78.1385C97.6667 77.5452 98.071 77.0845 98.5881 76.7564C99.1084 76.4283 99.7133 76.2642 100.403 76.2642C101.092 76.2642 101.695 76.4283 102.212 76.7564C102.733 77.0845 103.137 77.5452 103.425 78.1385C103.717 78.7318 103.863 79.4261 103.863 80.2216C103.863 81.0104 103.717 81.6998 103.425 82.2898C103.137 82.8797 102.733 83.3388 102.212 83.6669C101.695 83.995 101.092 84.1591 100.403 84.1591ZM100.403 83.1051C100.926 83.1051 101.357 82.9709 101.695 82.7024C102.033 82.4339 102.284 82.081 102.446 81.6435C102.608 81.206 102.69 80.732 102.69 80.2216C102.69 79.7112 102.608 79.2356 102.446 78.7947C102.284 78.3539 102.033 77.9976 101.695 77.7259C101.357 77.4541 100.926 77.3182 100.403 77.3182C99.879 77.3182 99.4482 77.4541 99.1101 77.7259C98.772 77.9976 98.5218 78.3539 98.3594 78.7947C98.197 79.2356 98.1158 79.7112 98.1158 80.2216C98.1158 80.732 98.197 81.206 98.3594 81.6435C98.5218 82.081 98.772 82.4339 99.1101 82.7024C99.4482 82.9709 99.879 83.1051 100.403 83.1051Z" fill="#FCFCFC"/>
<path d="M16.8395 102V101.045L19.7926 97.9858C20.108 97.6534 20.3679 97.3622 20.5724 97.1122C20.7798 96.8594 20.9347 96.6193 21.0369 96.392C21.1392 96.1648 21.1903 95.9233 21.1903 95.6676C21.1903 95.3778 21.1222 95.1278 20.9858 94.9176C20.8494 94.7045 20.6634 94.5412 20.4276 94.4276C20.1918 94.3111 19.9261 94.2528 19.6307 94.2528C19.3182 94.2528 19.0455 94.3168 18.8125 94.4446C18.5795 94.5724 18.4006 94.7528 18.2756 94.9858C18.1506 95.2187 18.0881 95.4915 18.0881 95.804H16.831C16.831 95.2727 16.9531 94.8082 17.1974 94.4105C17.4418 94.0128 17.777 93.7045 18.2031 93.4858C18.6293 93.2642 19.1136 93.1534 19.6562 93.1534C20.2045 93.1534 20.6875 93.2628 21.1051 93.4815C21.5256 93.6974 21.8537 93.9929 22.0895 94.3679C22.3253 94.7401 22.4432 95.1605 22.4432 95.6293C22.4432 95.9531 22.3821 96.2699 22.2599 96.5795C22.1406 96.8892 21.9318 97.2344 21.6335 97.6151C21.3352 97.9929 20.9205 98.4517 20.3892 98.9915L18.6548 100.807V100.871H22.5838V102H16.8395ZM27.2372 102.145C26.5639 102.142 25.9886 101.964 25.5114 101.612C25.0341 101.26 24.669 100.747 24.4162 100.074C24.1634 99.4006 24.0369 98.5895 24.0369 97.6406C24.0369 96.6946 24.1634 95.8864 24.4162 95.2159C24.6719 94.5455 25.0384 94.0341 25.5156 93.6818C25.9957 93.3295 26.5696 93.1534 27.2372 93.1534C27.9048 93.1534 28.4773 93.331 28.9545 93.6861C29.4318 94.0384 29.7969 94.5497 30.0497 95.2202C30.3054 95.8878 30.4332 96.6946 30.4332 97.6406C30.4332 98.5923 30.3068 99.4048 30.054 100.078C29.8011 100.749 29.4361 101.261 28.9588 101.616C28.4815 101.969 27.9077 102.145 27.2372 102.145ZM27.2372 101.007C27.8281 101.007 28.2898 100.719 28.6222 100.142C28.9574 99.5653 29.125 98.7315 29.125 97.6406C29.125 96.9162 29.0483 96.304 28.8949 95.804C28.7443 95.3011 28.527 94.9205 28.2429 94.6619C27.9616 94.4006 27.6264 94.2699 27.2372 94.2699C26.6491 94.2699 26.1875 94.5597 25.8523 95.1392C25.517 95.7187 25.348 96.5526 25.3452 97.6406C25.3452 98.3679 25.4205 98.983 25.571 99.4858C25.7244 99.9858 25.9418 100.365 26.223 100.624C26.5043 100.879 26.8423 101.007 27.2372 101.007ZM34.9833 102.145C34.31 102.142 33.7347 101.964 33.2575 101.612C32.7802 101.26 32.4151 100.747 32.1623 100.074C31.9094 99.4006 31.783 98.5895 31.783 97.6406C31.783 96.6946 31.9094 95.8864 32.1623 95.2159C32.418 94.5455 32.7844 94.0341 33.2617 93.6818C33.7418 93.3295 34.3157 93.1534 34.9833 93.1534C35.6509 93.1534 36.2234 93.331 36.7006 93.6861C37.1779 94.0384 37.543 94.5497 37.7958 95.2202C38.0515 95.8878 38.1793 96.6946 38.1793 97.6406C38.1793 98.5923 38.0529 99.4048 37.8001 100.078C37.5472 100.749 37.1822 101.261 36.7049 101.616C36.2276 101.969 35.6538 102.145 34.9833 102.145ZM34.9833 101.007C35.5742 101.007 36.0359 100.719 36.3683 100.142C36.7035 99.5653 36.8711 98.7315 36.8711 97.6406C36.8711 96.9162 36.7944 96.304 36.641 95.804C36.4904 95.3011 36.2731 94.9205 35.989 94.6619C35.7077 94.4006 35.3725 94.2699 34.9833 94.2699C34.3952 94.2699 33.9336 94.5597 33.5984 95.1392C33.2631 95.7187 33.0941 96.5526 33.0913 97.6406C33.0913 98.3679 33.1665 98.983 33.3171 99.4858C33.4705 99.9858 33.6879 100.365 33.9691 100.624C34.2504 100.879 34.5884 101.007 34.9833 101.007ZM45.6282 104.591C45.1083 104.591 44.6609 104.523 44.2859 104.386C43.9137 104.25 43.6097 104.07 43.3739 103.845C43.1381 103.621 42.962 103.375 42.8455 103.108L43.9407 102.656C44.0174 102.781 44.1197 102.913 44.2475 103.053C44.3782 103.195 44.5543 103.315 44.7759 103.415C45.0004 103.514 45.2887 103.564 45.641 103.564C46.1239 103.564 46.5231 103.446 46.8384 103.21C47.1538 102.977 47.3114 102.605 47.3114 102.094V100.807H47.2305C47.1538 100.946 47.043 101.101 46.8981 101.271C46.756 101.442 46.56 101.589 46.31 101.714C46.06 101.839 45.7347 101.902 45.3342 101.902C44.8171 101.902 44.3512 101.781 43.9364 101.54C43.5245 101.295 43.1978 100.936 42.9563 100.462C42.7177 99.9844 42.5984 99.3977 42.5984 98.7017C42.5984 98.0057 42.7163 97.4091 42.9521 96.9119C43.1907 96.4148 43.5174 96.0341 43.9322 95.7699C44.3469 95.5028 44.8171 95.3693 45.3427 95.3693C45.7489 95.3693 46.0771 95.4375 46.3271 95.5739C46.5771 95.7074 46.7717 95.8636 46.9109 96.0426C47.0529 96.2216 47.1623 96.3793 47.239 96.5156H47.3327V95.4545H48.5813V102.145C48.5813 102.707 48.4506 103.169 48.1893 103.53C47.9279 103.891 47.5742 104.158 47.1282 104.331C46.685 104.504 46.185 104.591 45.6282 104.591ZM45.6154 100.845C45.9819 100.845 46.2915 100.76 46.5444 100.589C46.8001 100.416 46.9933 100.169 47.1239 99.848C47.2575 99.5241 47.3242 99.1364 47.3242 98.6847C47.3242 98.2443 47.2589 97.8565 47.1282 97.5213C46.9975 97.1861 46.8058 96.9247 46.5529 96.7372C46.3001 96.5469 45.9876 96.4517 45.6154 96.4517C45.2319 96.4517 44.9123 96.5511 44.6566 96.75C44.4009 96.946 44.2077 97.2131 44.0771 97.5511C43.9492 97.8892 43.8853 98.267 43.8853 98.6847C43.8853 99.1136 43.9506 99.4901 44.0813 99.8139C44.212 100.138 44.4052 100.391 44.6609 100.572C44.9194 100.754 45.2376 100.845 45.6154 100.845ZM50.2901 102V95.4545H51.5217V96.4943H51.5898C51.7092 96.142 51.9194 95.8651 52.2205 95.6634C52.5245 95.4588 52.8683 95.3565 53.2518 95.3565C53.3313 95.3565 53.4251 95.3594 53.533 95.3651C53.6438 95.3707 53.7305 95.3778 53.793 95.3864V96.6051C53.7418 96.5909 53.6509 96.5753 53.5202 96.5582C53.3896 96.5384 53.2589 96.5284 53.1282 96.5284C52.8271 96.5284 52.5586 96.5923 52.3228 96.7202C52.0898 96.8452 51.9052 97.0199 51.7688 97.2443C51.6325 97.4659 51.5643 97.7187 51.5643 98.0028V102H50.2901ZM56.7418 102.145C56.3271 102.145 55.9521 102.068 55.6168 101.915C55.2816 101.759 55.016 101.533 54.82 101.237C54.6268 100.942 54.5302 100.58 54.5302 100.151C54.5302 99.7812 54.6012 99.4773 54.7433 99.2386C54.8853 99 55.0771 98.8111 55.3185 98.6719C55.56 98.5327 55.8299 98.4276 56.1282 98.3565C56.4265 98.2855 56.7305 98.2315 57.0401 98.1946C57.4322 98.1491 57.7504 98.1122 57.9947 98.0838C58.239 98.0526 58.4165 98.0028 58.5273 97.9347C58.6381 97.8665 58.6935 97.7557 58.6935 97.6023V97.5724C58.6935 97.2003 58.5884 96.9119 58.3782 96.7074C58.1708 96.5028 57.8612 96.4006 57.4492 96.4006C57.0202 96.4006 56.6822 96.4957 56.435 96.6861C56.1907 96.8736 56.0217 97.0824 55.9279 97.3125L54.7305 97.0398C54.8725 96.642 55.0799 96.321 55.3526 96.0767C55.6282 95.8295 55.945 95.6506 56.3029 95.5398C56.6609 95.4261 57.0373 95.3693 57.4322 95.3693C57.6935 95.3693 57.9705 95.4006 58.2631 95.4631C58.5586 95.5227 58.8342 95.6335 59.0898 95.7955C59.3484 95.9574 59.56 96.1889 59.7248 96.4901C59.8896 96.7884 59.9719 97.1761 59.9719 97.6534V102H58.7276V101.105H58.6765C58.5941 101.27 58.4705 101.432 58.3058 101.591C58.141 101.75 57.9293 101.882 57.6708 101.987C57.4123 102.092 57.1026 102.145 56.7418 102.145ZM57.0188 101.122C57.3711 101.122 57.6722 101.053 57.9222 100.913C58.1751 100.774 58.3668 100.592 58.4975 100.368C58.631 100.141 58.6978 99.8977 58.6978 99.6392V98.7955C58.6523 98.8409 58.5643 98.8835 58.4336 98.9233C58.3058 98.9602 58.1594 98.9929 57.9947 99.0213C57.8299 99.0469 57.6694 99.071 57.5131 99.0938C57.3569 99.1136 57.2262 99.1307 57.1211 99.1449C56.8739 99.1761 56.6481 99.2287 56.4435 99.3026C56.2418 99.3764 56.0799 99.483 55.9577 99.6222C55.8384 99.7585 55.7788 99.9403 55.7788 100.168C55.7788 100.483 55.8952 100.722 56.1282 100.884C56.3612 101.043 56.658 101.122 57.0188 101.122ZM61.669 102V95.4545H62.892V96.5199H62.973C63.1094 96.1591 63.3324 95.8778 63.642 95.6761C63.9517 95.4716 64.3224 95.3693 64.7543 95.3693C65.1918 95.3693 65.5582 95.4716 65.8537 95.6761C66.152 95.8807 66.3722 96.1619 66.5142 96.5199H66.5824C66.7386 96.1705 66.9872 95.892 67.3281 95.6847C67.669 95.4744 68.0753 95.3693 68.5469 95.3693C69.1406 95.3693 69.625 95.5554 70 95.9276C70.3778 96.2997 70.5668 96.8608 70.5668 97.6108V102H69.2926V97.7301C69.2926 97.2869 69.1719 96.9659 68.9304 96.767C68.6889 96.5682 68.4006 96.4688 68.0653 96.4688C67.6506 96.4688 67.3281 96.5966 67.098 96.8523C66.8679 97.1051 66.7528 97.4304 66.7528 97.8281V102H65.483V97.6491C65.483 97.294 65.3722 97.0085 65.1506 96.7926C64.929 96.5767 64.6406 96.4688 64.2855 96.4688C64.044 96.4688 63.821 96.5327 63.6165 96.6605C63.4148 96.7855 63.2514 96.9602 63.1264 97.1847C63.0043 97.4091 62.9432 97.669 62.9432 97.9645V102H61.669ZM77.1793 97.0526L76.0245 97.2571C75.9762 97.1094 75.8995 96.9687 75.7944 96.8352C75.6921 96.7017 75.5529 96.5923 75.3768 96.5071C75.2006 96.4219 74.9805 96.3793 74.7163 96.3793C74.3555 96.3793 74.0543 96.4602 73.8129 96.6222C73.5714 96.7812 73.4506 96.9872 73.4506 97.2401C73.4506 97.4588 73.5316 97.6349 73.6935 97.7685C73.8555 97.902 74.1168 98.0114 74.4776 98.0966L75.5174 98.3352C76.1197 98.4744 76.5685 98.6889 76.864 98.9787C77.1594 99.2685 77.3072 99.6449 77.3072 100.108C77.3072 100.5 77.1935 100.849 76.9663 101.156C76.7418 101.46 76.4279 101.699 76.0245 101.872C75.6239 102.045 75.1594 102.132 74.631 102.132C73.8981 102.132 73.3001 101.976 72.837 101.663C72.3739 101.348 72.0898 100.901 71.9847 100.321L73.2163 100.134C73.293 100.455 73.4506 100.697 73.6893 100.862C73.9279 101.024 74.239 101.105 74.6225 101.105C75.0401 101.105 75.3739 101.018 75.6239 100.845C75.8739 100.669 75.9989 100.455 75.9989 100.202C75.9989 99.9972 75.9222 99.8253 75.7688 99.6861C75.6183 99.5469 75.3867 99.4418 75.0742 99.3707L73.9663 99.1278C73.3555 98.9886 72.9038 98.767 72.6112 98.4631C72.3214 98.1591 72.1765 97.7741 72.1765 97.3082C72.1765 96.9219 72.2844 96.5838 72.5004 96.294C72.7163 96.0043 73.0146 95.7784 73.3952 95.6165C73.7759 95.4517 74.212 95.3693 74.7035 95.3693C75.4109 95.3693 75.9677 95.5227 76.3739 95.8295C76.7802 96.1335 77.0487 96.5412 77.1793 97.0526Z" fill="#70707B"/>
<path d="M199.725 82V80.858L202.755 77.8878C203.044 77.5952 203.286 77.3352 203.479 77.108C203.672 76.8807 203.817 76.6605 203.914 76.4474C204.01 76.2344 204.059 76.0071 204.059 75.7656C204.059 75.4901 203.996 75.2543 203.871 75.0582C203.746 74.8594 203.574 74.706 203.355 74.598C203.137 74.4901 202.888 74.4361 202.61 74.4361C202.323 74.4361 202.071 74.4957 201.855 74.6151C201.64 74.7315 201.472 74.8977 201.353 75.1136C201.236 75.3295 201.178 75.5866 201.178 75.8849H199.674C199.674 75.331 199.8 74.8494 200.053 74.4403C200.306 74.0312 200.654 73.7145 201.097 73.4901C201.543 73.2656 202.054 73.1534 202.631 73.1534C203.216 73.1534 203.73 73.2628 204.174 73.4815C204.617 73.7003 204.961 74 205.205 74.3807C205.452 74.7614 205.576 75.196 205.576 75.6847C205.576 76.0114 205.513 76.3324 205.388 76.6477C205.263 76.9631 205.043 77.3125 204.728 77.696C204.415 78.0795 203.976 78.544 203.411 79.0895L201.907 80.6193V80.679H205.708V82H199.725ZM210.212 82.1193C209.644 82.1193 209.135 82.0128 208.686 81.7997C208.238 81.5838 207.881 81.2884 207.617 80.9134C207.355 80.5384 207.216 80.1094 207.199 79.6264H208.733C208.762 79.9844 208.917 80.277 209.198 80.5043C209.479 80.7287 209.817 80.8409 210.212 80.8409C210.522 80.8409 210.797 80.7699 211.039 80.6278C211.28 80.4858 211.471 80.2884 211.61 80.0355C211.749 79.7827 211.817 79.4943 211.814 79.1705C211.817 78.8409 211.748 78.5483 211.605 78.2926C211.463 78.0369 211.269 77.8366 211.022 77.6918C210.775 77.544 210.49 77.4702 210.169 77.4702C209.908 77.4673 209.651 77.5156 209.398 77.6151C209.145 77.7145 208.945 77.8452 208.797 78.0071L207.37 77.7727L207.826 73.2727H212.888V74.5938H209.134L208.882 76.9077H208.934C209.096 76.7173 209.324 76.5597 209.62 76.4347C209.915 76.3068 210.239 76.2429 210.591 76.2429C211.12 76.2429 211.591 76.3679 212.006 76.6179C212.421 76.8651 212.748 77.206 212.986 77.6406C213.225 78.0753 213.344 78.5724 213.344 79.1321C213.344 79.7088 213.211 80.223 212.944 80.6747C212.679 81.1236 212.311 81.4773 211.84 81.7358C211.371 81.9915 210.828 82.1193 210.212 82.1193ZM217.998 82.1662C217.296 82.1662 216.694 81.9886 216.191 81.6335C215.691 81.2756 215.306 80.7599 215.036 80.0866C214.769 79.4105 214.635 78.5966 214.635 77.6449C214.638 76.6932 214.773 75.8835 215.04 75.2159C215.31 74.5455 215.695 74.0341 216.195 73.6818C216.698 73.3295 217.299 73.1534 217.998 73.1534C218.696 73.1534 219.297 73.3295 219.8 73.6818C220.303 74.0341 220.688 74.5455 220.955 75.2159C221.225 75.8864 221.36 76.696 221.36 77.6449C221.36 78.5994 221.225 79.4148 220.955 80.0909C220.688 80.7642 220.303 81.2784 219.8 81.6335C219.3 81.9886 218.699 82.1662 217.998 82.1662ZM217.998 80.8324C218.543 80.8324 218.973 80.5639 219.289 80.027C219.607 79.4872 219.766 78.6932 219.766 77.6449C219.766 76.9517 219.694 76.3693 219.549 75.8977C219.404 75.4261 219.199 75.071 218.935 74.8324C218.671 74.5909 218.358 74.4702 217.998 74.4702C217.455 74.4702 217.026 74.7401 216.711 75.2798C216.395 75.8168 216.236 76.6051 216.233 77.6449C216.23 78.3409 216.3 78.9261 216.442 79.4006C216.587 79.875 216.792 80.233 217.056 80.4744C217.32 80.7131 217.634 80.8324 217.998 80.8324Z" fill="#FCFCFC"/>
</svg>
