<svg width="202" height="89" viewBox="0 0 202 89" fill="none" xmlns="http://www.w3.org/2000/svg">
<path d="M14.9351 14.2859H14.2109C14.168 14.0776 14.0931 13.8946 13.986 13.7369C13.8809 13.5792 13.7524 13.4468 13.6005 13.3398C13.4506 13.2307 13.2842 13.149 13.1012 13.0945C12.9182 13.0399 12.7274 13.0127 12.5288 13.0127C12.1667 13.0127 11.8387 13.1042 11.5448 13.2872C11.2527 13.4702 11.0201 13.7398 10.8468 14.0961C10.6755 14.4523 10.5899 14.8894 10.5899 15.4072C10.5899 15.9251 10.6755 16.3621 10.8468 16.7184C11.0201 17.0746 11.2527 17.3443 11.5448 17.5273C11.8387 17.7103 12.1667 17.8017 12.5288 17.8017C12.7274 17.8017 12.9182 17.7745 13.1012 17.72C13.2842 17.6655 13.4506 17.5847 13.6005 17.4776C13.7524 17.3686 13.8809 17.2352 13.986 17.0776C14.0931 16.9179 14.168 16.7349 14.2109 16.5286H14.9351C14.8805 16.8342 14.7813 17.1077 14.6372 17.3491C14.4931 17.5905 14.314 17.7959 14.0999 17.9653C13.8857 18.1327 13.6453 18.2602 13.3786 18.3478C13.1138 18.4354 12.8306 18.4792 12.5288 18.4792C12.0188 18.4792 11.5652 18.3546 11.1681 18.1054C10.7709 17.8563 10.4585 17.5019 10.2307 17.0425C10.0029 16.5831 9.88902 16.038 9.88902 15.4072C9.88902 14.7765 10.0029 14.2314 10.2307 13.7719C10.4585 13.3125 10.7709 12.9582 11.1681 12.709C11.5652 12.4598 12.0188 12.3352 12.5288 12.3352C12.8306 12.3352 13.1138 12.379 13.3786 12.4666C13.6453 12.5542 13.8857 12.6827 14.0999 12.8521C14.314 13.0195 14.4931 13.2239 14.6372 13.4653C14.7813 13.7048 14.8805 13.9783 14.9351 14.2859ZM17.3318 18.5026C17.0475 18.5026 16.7896 18.4491 16.5579 18.342C16.3263 18.233 16.1423 18.0762 16.006 17.8718C15.8697 17.6655 15.8016 17.4163 15.8016 17.1243C15.8016 16.8673 15.8522 16.659 15.9535 16.4994C16.0547 16.3378 16.19 16.2112 16.3594 16.1197C16.5287 16.0282 16.7156 15.9601 16.92 15.9153C17.1264 15.8686 17.3337 15.8316 17.542 15.8044C17.8146 15.7693 18.0355 15.743 18.2049 15.7255C18.3762 15.7061 18.5008 15.6739 18.5787 15.6292C18.6585 15.5844 18.6984 15.5065 18.6984 15.3955V15.3722C18.6984 15.0841 18.6196 14.8602 18.4619 14.7005C18.3061 14.5409 18.0696 14.4611 17.7523 14.4611C17.4233 14.4611 17.1653 14.5331 16.9784 14.6772C16.7915 14.8212 16.6601 14.975 16.5842 15.1386L15.9301 14.905C16.0469 14.6324 16.2026 14.4202 16.3973 14.2684C16.5939 14.1146 16.8081 14.0075 17.0398 13.9471C17.2734 13.8848 17.5031 13.8537 17.7289 13.8537C17.873 13.8537 18.0384 13.8712 18.2253 13.9063C18.4142 13.9394 18.5962 14.0085 18.7714 14.1136C18.9486 14.2187 19.0955 14.3774 19.2123 14.5896C19.3292 14.8018 19.3876 15.086 19.3876 15.4423V18.3975H18.6984V17.7901H18.6634C18.6166 17.8874 18.5388 17.9916 18.4297 18.1025C18.3207 18.2135 18.1757 18.3079 17.9946 18.3858C17.8136 18.4637 17.5926 18.5026 17.3318 18.5026ZM17.4369 17.8835C17.7094 17.8835 17.9392 17.83 18.1261 17.7229C18.3149 17.6158 18.457 17.4776 18.5524 17.3082C18.6497 17.1389 18.6984 16.9607 18.6984 16.7739V16.1431C18.6692 16.1781 18.605 16.2103 18.5057 16.2395C18.4083 16.2667 18.2954 16.2911 18.1669 16.3125C18.0404 16.3319 17.9168 16.3495 17.7961 16.365C17.6773 16.3787 17.581 16.3903 17.507 16.4001C17.3279 16.4234 17.1605 16.4614 17.0047 16.514C16.8509 16.5646 16.7263 16.6415 16.6309 16.7447C16.5375 16.8459 16.4908 16.9841 16.4908 17.1593C16.4908 17.3988 16.5793 17.5798 16.7565 17.7025C16.9356 17.8232 17.1624 17.8835 17.4369 17.8835ZM20.6454 18.3975V13.9121H21.3112V14.5896H21.3579C21.4397 14.3676 21.5877 14.1876 21.8018 14.0493C22.0159 13.9111 22.2573 13.842 22.526 13.842C22.5766 13.842 22.6399 13.843 22.7158 13.8449C22.7917 13.8469 22.8492 13.8498 22.8881 13.8537V14.5545C22.8647 14.5487 22.8112 14.5399 22.7275 14.5283C22.6457 14.5146 22.5591 14.5078 22.4676 14.5078C22.2496 14.5078 22.0549 14.5536 21.8836 14.6451C21.7142 14.7346 21.5799 14.8592 21.4806 15.0188C21.3832 15.1765 21.3346 15.3566 21.3346 15.5591V18.3975H20.6454ZM23.7985 18.3975V12.417H24.4876V14.6246H24.546C24.5966 14.5467 24.6667 14.4475 24.7563 14.3268C24.8478 14.2041 24.9782 14.0951 25.1476 13.9997C25.3189 13.9024 25.5505 13.8537 25.8426 13.8537C26.2202 13.8537 26.5531 13.9481 26.8413 14.137C27.1294 14.3258 27.3542 14.5935 27.5158 14.94C27.6774 15.2865 27.7582 15.6953 27.7582 16.1665C27.7582 16.6415 27.6774 17.0532 27.5158 17.4017C27.3542 17.7482 27.1304 18.0169 26.8442 18.2077C26.558 18.3965 26.228 18.4909 25.8542 18.4909C25.5661 18.4909 25.3354 18.4432 25.1622 18.3478C24.9889 18.2505 24.8556 18.1405 24.7621 18.0178C24.6687 17.8932 24.5966 17.7901 24.546 17.7083H24.4642V18.3975H23.7985ZM24.4759 16.1548C24.4759 16.4935 24.5256 16.7923 24.6249 17.0513C24.7241 17.3082 24.8692 17.5097 25.06 17.6557C25.2507 17.7998 25.4844 17.8718 25.7608 17.8718C26.0489 17.8718 26.2893 17.7959 26.4821 17.6441C26.6768 17.4903 26.8228 17.2839 26.9201 17.025C27.0194 16.7641 27.069 16.4741 27.069 16.1548C27.069 15.8394 27.0204 15.5552 26.923 15.3021C26.8276 15.0471 26.6826 14.8456 26.4879 14.6976C26.2952 14.5477 26.0528 14.4728 25.7608 14.4728C25.4805 14.4728 25.2449 14.5438 25.0541 14.6859C24.8633 14.8261 24.7193 15.0227 24.6219 15.2758C24.5246 15.5269 24.4759 15.8199 24.4759 16.1548ZM31.9895 14.9166L31.3704 15.0918C31.3315 14.9887 31.2741 14.8884 31.1981 14.7911C31.1242 14.6918 31.0229 14.61 30.8944 14.5458C30.7659 14.4815 30.6014 14.4494 30.4009 14.4494C30.1264 14.4494 29.8977 14.5127 29.7147 14.6392C29.5336 14.7638 29.4431 14.9225 29.4431 15.1152C29.4431 15.2865 29.5054 15.4218 29.63 15.5211C29.7546 15.6204 29.9493 15.7031 30.214 15.7693L30.8798 15.9328C31.2809 16.0302 31.5797 16.1791 31.7763 16.3796C31.9729 16.5782 32.0713 16.8342 32.0713 17.1476C32.0713 17.4046 31.9973 17.6343 31.8493 17.8368C31.7033 18.0393 31.4989 18.1989 31.2361 18.3157C30.9733 18.4325 30.6676 18.4909 30.3192 18.4909C29.8617 18.4909 29.483 18.3916 29.1832 18.1931C28.8834 17.9945 28.6936 17.7044 28.6138 17.3228L29.2679 17.1593C29.3302 17.4007 29.448 17.5818 29.6212 17.7025C29.7965 17.8232 30.0252 17.8835 30.3075 17.8835C30.6287 17.8835 30.8837 17.8154 31.0726 17.6791C31.2633 17.5409 31.3587 17.3754 31.3587 17.1827C31.3587 17.0269 31.3042 16.8965 31.1952 16.7914C31.0862 16.6843 30.9188 16.6045 30.6929 16.5519L29.9454 16.3767C29.5346 16.2794 29.2329 16.1285 29.0401 15.9241C28.8494 15.7177 28.754 15.4598 28.754 15.1502C28.754 14.8972 28.825 14.6733 28.9671 14.4786C29.1112 14.2839 29.3068 14.1311 29.5541 14.0201C29.8033 13.9092 30.0855 13.8537 30.4009 13.8537C30.8448 13.8537 31.1933 13.951 31.4463 14.1457C31.7014 14.3404 31.8824 14.5974 31.9895 14.9166Z" fill="#FCFCFC"/>
<rect x="174.021" y="9.39746" width="18.0484" height="15.6989" rx="2.34947" fill="#00D68F" fill-opacity="0.1"/>
<path d="M178.049 18.846V17.9925L180.189 14.6209H180.925V15.8024H180.489L179.14 17.9374V17.9775H182.181V18.846H178.049ZM180.509 19.7471V18.5857L180.529 18.2077V14.6209H181.545V19.7471H180.509ZM185.709 18.7859V18.5156C185.709 18.3104 185.752 18.1218 185.839 17.9499C185.928 17.7764 186.055 17.6379 186.222 17.5344C186.391 17.4293 186.596 17.3767 186.838 17.3767C187.083 17.3767 187.289 17.4285 187.456 17.5319C187.625 17.6354 187.751 17.7739 187.837 17.9474C187.923 18.1193 187.967 18.3087 187.967 18.5156V18.7859C187.967 18.9912 187.923 19.1806 187.837 19.3541C187.75 19.526 187.622 19.6636 187.454 19.7671C187.285 19.8722 187.08 19.9248 186.838 19.9248C186.593 19.9248 186.387 19.8722 186.22 19.7671C186.053 19.6636 185.926 19.526 185.839 19.3541C185.752 19.1806 185.709 18.9912 185.709 18.7859ZM186.437 18.5156V18.7859C186.437 18.9044 186.466 19.0162 186.523 19.1213C186.581 19.2264 186.686 19.279 186.838 19.279C186.99 19.279 187.093 19.2273 187.148 19.1238C187.205 19.0204 187.233 18.9077 187.233 18.7859V18.5156C187.233 18.3938 187.207 18.2803 187.153 18.1752C187.1 18.0701 186.995 18.0175 186.838 18.0175C186.688 18.0175 186.583 18.0701 186.525 18.1752C186.467 18.2803 186.437 18.3938 186.437 18.5156ZM183.078 15.8524V15.5821C183.078 15.3752 183.123 15.1858 183.211 15.0139C183.299 14.8404 183.427 14.7019 183.594 14.5984C183.763 14.495 183.966 14.4432 184.205 14.4432C184.452 14.4432 184.659 14.495 184.825 14.5984C184.992 14.7019 185.119 14.8404 185.206 15.0139C185.293 15.1858 185.336 15.3752 185.336 15.5821V15.8524C185.336 16.0593 185.292 16.2487 185.203 16.4206C185.117 16.5925 184.989 16.7301 184.82 16.8336C184.654 16.9354 184.448 16.9863 184.205 16.9863C183.961 16.9863 183.755 16.9345 183.586 16.8311C183.42 16.726 183.293 16.5883 183.206 16.4181C183.121 16.2462 183.078 16.0577 183.078 15.8524ZM183.812 15.5821V15.8524C183.812 15.9742 183.84 16.0869 183.897 16.1903C183.955 16.2938 184.058 16.3455 184.205 16.3455C184.358 16.3455 184.463 16.2938 184.518 16.1903C184.574 16.0869 184.603 15.9742 184.603 15.8524V15.5821C184.603 15.4603 184.576 15.3468 184.523 15.2417C184.469 15.1366 184.363 15.084 184.205 15.084C184.056 15.084 183.954 15.1374 183.897 15.2442C183.84 15.351 183.812 15.4636 183.812 15.5821ZM183.409 19.7471L186.933 14.6209H187.589L184.065 19.7471H183.409Z" fill="#00D68F"/>
<rect x="9.39844" y="29.7949" width="182.672" height="2.34947" rx="1.17474" fill="#26272B"/>
<path d="M9.39844 30.9697C9.39844 30.3209 9.92438 29.7949 10.5732 29.7949H66.6289C67.2777 29.7949 67.8036 30.3209 67.8036 30.9697C67.8036 31.6184 67.2777 32.1444 66.6289 32.1444H10.5732C9.92439 32.1444 9.39844 31.6184 9.39844 30.9697Z" fill="#00D68F"/>
<path d="M12.3828 44.9752C11.8805 44.9732 11.4483 44.8496 11.0862 44.6043C10.7261 44.359 10.4487 44.0037 10.254 43.5384C10.0612 43.0732 9.96585 42.5135 9.9678 41.8594C9.9678 41.2072 10.0642 40.6514 10.2569 40.1919C10.4516 39.7325 10.729 39.3831 11.0891 39.1436C11.4512 38.9022 11.8824 38.7815 12.3828 38.7815C12.8831 38.7815 13.3133 38.9022 13.6735 39.1436C14.0356 39.385 14.314 39.7354 14.5086 40.1949C14.7033 40.6524 14.7997 41.2072 14.7977 41.8594C14.7977 42.5154 14.7004 43.0761 14.5057 43.5414C14.313 44.0066 14.0365 44.3619 13.6764 44.6072C13.3162 44.8525 12.885 44.9752 12.3828 44.9752ZM12.3828 43.9268C12.7254 43.9268 12.9989 43.7545 13.2033 43.41C13.4077 43.0654 13.509 42.5485 13.507 41.8594C13.507 41.4058 13.4603 41.0281 13.3669 40.7263C13.2754 40.4246 13.1449 40.1978 12.9756 40.0459C12.8081 39.8941 12.6105 39.8182 12.3828 39.8182C12.0421 39.8182 11.7695 39.9885 11.5651 40.3292C11.3607 40.6699 11.2575 41.1799 11.2556 41.8594C11.2556 42.3188 11.3013 42.7023 11.3928 43.0099C11.4863 43.3155 11.6177 43.5453 11.7871 43.699C11.9564 43.8509 12.155 43.9268 12.3828 43.9268ZM17.7318 46.6192C17.3288 46.6192 16.9832 46.5637 16.6951 46.4528C16.4089 46.3437 16.1812 46.1948 16.0118 46.006C15.8424 45.8171 15.7324 45.6049 15.6818 45.3694L16.8324 45.2146C16.8674 45.3042 16.9229 45.3879 16.9988 45.4657C17.0747 45.5436 17.175 45.6059 17.2996 45.6526C17.4261 45.7013 17.5799 45.7256 17.761 45.7256C18.0316 45.7256 18.2545 45.6594 18.4297 45.5271C18.6068 45.3966 18.6954 45.1776 18.6954 44.87V44.0495H18.6429C18.5883 44.1741 18.5066 44.2918 18.3976 44.4028C18.2885 44.5138 18.1484 44.6043 17.9771 44.6744C17.8057 44.7445 17.6013 44.7795 17.3638 44.7795C17.027 44.7795 16.7204 44.7016 16.444 44.5459C16.1695 44.3882 15.9505 44.1478 15.7869 43.8246C15.6254 43.4995 15.5446 43.0887 15.5446 42.5923C15.5446 42.0842 15.6273 41.6598 15.7928 41.3191C15.9583 40.9784 16.1782 40.7234 16.4527 40.554C16.7292 40.3847 17.0319 40.3 17.3609 40.3C17.612 40.3 17.8223 40.3428 17.9917 40.4285C18.161 40.5122 18.2973 40.6173 18.4005 40.7439C18.5056 40.8684 18.5864 40.9911 18.6429 41.1118H18.6896V40.3584H19.9248V44.8876C19.9248 45.2691 19.8314 45.5884 19.6445 45.8454C19.4576 46.1023 19.1987 46.2951 18.8677 46.4236C18.5387 46.554 18.1601 46.6192 17.7318 46.6192ZM17.758 43.8451C17.9586 43.8451 18.1279 43.7954 18.2662 43.6961C18.4063 43.5949 18.5134 43.4508 18.5874 43.2639C18.6633 43.0751 18.7013 42.8493 18.7013 42.5865C18.7013 42.3237 18.6643 42.0959 18.5903 41.9032C18.5163 41.7085 18.4092 41.5576 18.2691 41.4505C18.1289 41.3435 17.9586 41.2899 17.758 41.2899C17.5536 41.2899 17.3813 41.3454 17.2412 41.4564C17.101 41.5654 16.9949 41.7172 16.9229 41.9119C16.8508 42.1066 16.8148 42.3314 16.8148 42.5865C16.8148 42.8454 16.8508 43.0693 16.9229 43.2581C16.9969 43.445 17.103 43.59 17.2412 43.6932C17.3813 43.7944 17.5536 43.8451 17.758 43.8451ZM24.8445 44.9314C24.3909 44.9314 23.9987 44.835 23.6677 44.6423C23.3387 44.4476 23.0847 44.177 22.9055 43.8305C22.7264 43.482 22.6369 43.078 22.6369 42.6186C22.6369 42.1553 22.7264 41.7503 22.9055 41.4038C23.0847 41.0553 23.3387 40.7847 23.6677 40.592C23.9987 40.3973 24.3909 40.3 24.8445 40.3C25.2981 40.3 25.6894 40.3973 26.0184 40.592C26.3494 40.7847 26.6044 41.0553 26.7835 41.4038C26.9626 41.7503 27.0522 42.1553 27.0522 42.6186C27.0522 43.078 26.9626 43.482 26.7835 43.8305C26.6044 44.177 26.3494 44.4476 26.0184 44.6423C25.6894 44.835 25.2981 44.9314 24.8445 44.9314ZM24.8504 43.9677C25.0567 43.9677 25.229 43.9093 25.3672 43.7925C25.5055 43.6737 25.6096 43.5122 25.6797 43.3077C25.7517 43.1033 25.7877 42.8707 25.7877 42.6098C25.7877 42.349 25.7517 42.1163 25.6797 41.9119C25.6096 41.7075 25.5055 41.5459 25.3672 41.4272C25.229 41.3084 25.0567 41.249 24.8504 41.249C24.6421 41.249 24.4669 41.3084 24.3247 41.4272C24.1846 41.5459 24.0785 41.7075 24.0064 41.9119C23.9364 42.1163 23.9013 42.349 23.9013 42.6098C23.9013 42.8707 23.9364 43.1033 24.0064 43.3077C24.0785 43.5122 24.1846 43.6737 24.3247 43.7925C24.4669 43.9093 24.6421 43.9677 24.8504 43.9677ZM30.2731 40.3584V41.2928H27.5048V40.3584H30.2731ZM28.1385 44.8438V40.0343C28.1385 39.7091 28.2017 39.4395 28.3283 39.2254C28.4568 39.0112 28.632 38.8506 28.8539 38.7435C29.0758 38.6365 29.3279 38.5829 29.6102 38.5829C29.801 38.5829 29.9752 38.5975 30.1329 38.6267C30.2926 38.6559 30.4113 38.6822 30.4892 38.7056L30.2673 39.64C30.2186 39.6245 30.1582 39.6099 30.0862 39.5962C30.0161 39.5826 29.9441 39.5758 29.8701 39.5758C29.6871 39.5758 29.5596 39.6186 29.4876 39.7043C29.4155 39.788 29.3795 39.9058 29.3795 40.0576V44.8438H28.1385ZM32.9246 44.8438V43.9327L35.0534 41.9616C35.2344 41.7863 35.3863 41.6287 35.5089 41.4885C35.6335 41.3483 35.728 41.2111 35.7922 41.0767C35.8564 40.9405 35.8886 40.7935 35.8886 40.6358C35.8886 40.4606 35.8487 40.3097 35.7688 40.1832C35.689 40.0547 35.58 39.9564 35.4418 39.8882C35.3036 39.8182 35.1468 39.7831 34.9716 39.7831C34.7886 39.7831 34.629 39.8201 34.4927 39.8941C34.3565 39.9681 34.2513 40.0742 34.1773 40.2124C34.1034 40.3506 34.0664 40.5151 34.0664 40.7059H32.8662C32.8662 40.3146 32.9548 39.9749 33.1319 39.6868C33.3091 39.3986 33.5573 39.1757 33.8766 39.018C34.1958 38.8604 34.5638 38.7815 34.9804 38.7815C35.4087 38.7815 35.7815 38.8574 36.0988 39.0093C36.4181 39.1592 36.6663 39.3675 36.8435 39.6342C37.0206 39.9009 37.1092 40.2065 37.1092 40.5511C37.1092 40.7769 37.0644 40.9999 36.9749 41.2198C36.8873 41.4398 36.7305 41.6841 36.5047 41.9528C36.2789 42.2195 35.9606 42.5397 35.5498 42.9135L34.6767 43.7691V43.81H37.188V44.8438H32.9246ZM40.3148 44.9255C39.8787 44.9255 39.4903 44.8506 39.1496 44.7007C38.8109 44.5488 38.5432 44.3405 38.3466 44.0757C38.1519 43.809 38.0517 43.5015 38.0458 43.153H39.319C39.3268 43.299 39.3745 43.4275 39.4621 43.5384C39.5517 43.6475 39.6704 43.7321 39.8184 43.7925C39.9663 43.8528 40.1328 43.883 40.3177 43.883C40.5104 43.883 40.6808 43.849 40.8287 43.7808C40.9767 43.7127 41.0925 43.6183 41.1762 43.4976C41.2599 43.3769 41.3018 43.2377 41.3018 43.08C41.3018 42.9203 41.257 42.7792 41.1675 42.6566C41.0799 42.532 40.9533 42.4346 40.7879 42.3645C40.6243 42.2945 40.4296 42.2594 40.2038 42.2594H39.6461V41.3308H40.2038C40.3946 41.3308 40.563 41.2977 40.709 41.2315C40.857 41.1653 40.9718 41.0738 41.0536 40.957C41.1353 40.8383 41.1762 40.7 41.1762 40.5424C41.1762 40.3925 41.1402 40.2611 41.0682 40.1481C40.9981 40.0333 40.8988 39.9437 40.7703 39.8795C40.6438 39.8152 40.4958 39.7831 40.3265 39.7831C40.1552 39.7831 39.9984 39.8143 39.8563 39.8766C39.7142 39.9369 39.6003 40.0235 39.5147 40.1365C39.429 40.2494 39.3833 40.3818 39.3774 40.5336H38.1656C38.1714 40.189 38.2697 39.8853 38.4605 39.6225C38.6513 39.3597 38.9082 39.1543 39.2314 39.0064C39.5565 38.8565 39.9235 38.7815 40.3323 38.7815C40.745 38.7815 41.1061 38.8565 41.4157 39.0064C41.7252 39.1563 41.9656 39.3587 42.137 39.6138C42.3102 39.8668 42.3959 40.1511 42.3939 40.4664C42.3959 40.8013 42.2917 41.0806 42.0815 41.3045C41.8732 41.5284 41.6016 41.6705 41.2668 41.7309V41.7776C41.7067 41.834 42.0416 41.9869 42.2713 42.2361C42.503 42.4833 42.6178 42.7928 42.6159 43.1647C42.6178 43.5053 42.5195 43.8081 42.3209 44.0728C42.1243 44.3376 41.8527 44.5459 41.5062 44.6977C41.1597 44.8496 40.7625 44.9255 40.3148 44.9255ZM45.5572 46.6192C45.1542 46.6192 44.8087 46.5637 44.5205 46.4528C44.2344 46.3437 44.0066 46.1948 43.8372 46.006C43.6679 45.8171 43.5579 45.6049 43.5072 45.3694L44.6578 45.2146C44.6928 45.3042 44.7483 45.3879 44.8242 45.4657C44.9002 45.5436 45.0004 45.6059 45.125 45.6526C45.2516 45.7013 45.4053 45.7256 45.5864 45.7256C45.857 45.7256 46.0799 45.6594 46.2551 45.5271C46.4323 45.3966 46.5208 45.1776 46.5208 44.87V44.0495H46.4683C46.4138 44.1741 46.332 44.2918 46.223 44.4028C46.114 44.5138 45.9738 44.6043 45.8025 44.6744C45.6312 44.7445 45.4268 44.7795 45.1893 44.7795C44.8525 44.7795 44.5459 44.7016 44.2694 44.5459C43.9949 44.3882 43.7759 44.1478 43.6124 43.8246C43.4508 43.4995 43.37 43.0887 43.37 42.5923C43.37 42.0842 43.4527 41.6598 43.6182 41.3191C43.7837 40.9784 44.0037 40.7234 44.2782 40.554C44.5546 40.3847 44.8573 40.3 45.1863 40.3C45.4375 40.3 45.6477 40.3428 45.8171 40.4285C45.9865 40.5122 46.1227 40.6173 46.2259 40.7439C46.331 40.8684 46.4118 40.9911 46.4683 41.1118H46.515V40.3584H47.7502V44.8876C47.7502 45.2691 47.6568 45.5884 47.4699 45.8454C47.283 46.1023 47.0241 46.2951 46.6931 46.4236C46.3641 46.554 45.9855 46.6192 45.5572 46.6192ZM45.5835 43.8451C45.784 43.8451 45.9534 43.7954 46.0916 43.6961C46.2318 43.5949 46.3388 43.4508 46.4128 43.2639C46.4887 43.0751 46.5267 42.8493 46.5267 42.5865C46.5267 42.3237 46.4897 42.0959 46.4157 41.9032C46.3417 41.7085 46.2347 41.5576 46.0945 41.4505C45.9543 41.3435 45.784 41.2899 45.5835 41.2899C45.3791 41.2899 45.2068 41.3454 45.0666 41.4564C44.9264 41.5654 44.8203 41.7172 44.7483 41.9119C44.6763 42.1066 44.6403 42.3314 44.6403 42.5865C44.6403 42.8454 44.6763 43.0693 44.7483 43.2581C44.8223 43.445 44.9284 43.59 45.0666 43.6932C45.2068 43.7944 45.3791 43.8451 45.5835 43.8451Z" fill="#FCFCFC"/>
<path d="M166.692 43.8438V43.3932L168.385 41.541C168.583 41.3241 168.747 41.1355 168.875 40.9753C169.004 40.8135 169.099 40.6616 169.16 40.5198C169.224 40.3763 169.256 40.2261 169.256 40.0692C169.256 39.889 169.212 39.733 169.125 39.6012C169.04 39.4694 168.923 39.3676 168.775 39.2958C168.626 39.2241 168.46 39.1882 168.274 39.1882C168.077 39.1882 167.906 39.2291 167.759 39.3108C167.614 39.3909 167.501 39.5036 167.421 39.6487C167.342 39.7939 167.303 39.9641 167.303 40.1593H166.713C166.713 39.859 166.782 39.5953 166.92 39.3684C167.059 39.1415 167.247 38.9646 167.486 38.8378C167.726 38.711 167.996 38.6475 168.294 38.6475C168.595 38.6475 168.861 38.711 169.093 38.8378C169.325 38.9646 169.507 39.1356 169.639 39.3509C169.77 39.5661 169.836 39.8056 169.836 40.0692C169.836 40.2578 169.802 40.4422 169.734 40.6224C169.667 40.8009 169.55 41.0004 169.383 41.2206C169.218 41.4392 168.989 41.7062 168.695 42.0216L167.544 43.253V43.2931H169.926V43.8438H166.692ZM172.692 43.9138C172.362 43.9138 172.067 43.8571 171.809 43.7436C171.552 43.6302 171.347 43.4725 171.195 43.2706C171.045 43.067 170.963 42.8309 170.95 42.5622H171.581C171.594 42.7274 171.651 42.8701 171.751 42.9902C171.851 43.1087 171.982 43.2005 172.144 43.2656C172.306 43.3306 172.485 43.3632 172.682 43.3632C172.902 43.3632 173.098 43.3248 173.268 43.248C173.438 43.1713 173.572 43.0645 173.668 42.9277C173.765 42.7908 173.814 42.6323 173.814 42.4521C173.814 42.2635 173.767 42.0975 173.673 41.954C173.58 41.8088 173.443 41.6953 173.263 41.6136C173.083 41.5318 172.862 41.4909 172.602 41.4909H172.192V40.9403H172.602C172.806 40.9403 172.984 40.9036 173.138 40.8301C173.293 40.7567 173.414 40.6533 173.501 40.5198C173.589 40.3863 173.633 40.2294 173.633 40.0492C173.633 39.8757 173.595 39.7247 173.518 39.5962C173.441 39.4677 173.333 39.3676 173.193 39.2958C173.054 39.2241 172.891 39.1882 172.702 39.1882C172.525 39.1882 172.358 39.2207 172.202 39.2858C172.046 39.3492 171.92 39.4418 171.821 39.5636C171.723 39.6838 171.669 39.829 171.661 39.9992H171.06C171.07 39.7305 171.151 39.4952 171.303 39.2933C171.455 39.0897 171.653 38.9312 171.899 38.8177C172.146 38.7043 172.417 38.6475 172.712 38.6475C173.029 38.6475 173.301 38.7118 173.528 38.8403C173.755 38.9671 173.929 39.1348 174.051 39.3434C174.173 39.552 174.234 39.7772 174.234 40.0192C174.234 40.3079 174.158 40.554 174.006 40.7576C173.856 40.9611 173.652 41.1021 173.393 41.1806V41.2206C173.717 41.274 173.97 41.4117 174.151 41.6336C174.333 41.8539 174.424 42.1267 174.424 42.4521C174.424 42.7308 174.348 42.9811 174.196 43.203C174.046 43.4232 173.841 43.5968 173.581 43.7236C173.32 43.8504 173.024 43.9138 172.692 43.9138ZM177.01 45.3656C176.724 45.3656 176.479 45.3289 176.274 45.2554C176.069 45.1837 175.898 45.0886 175.761 44.9701C175.626 44.8533 175.518 44.7281 175.438 44.5946L175.909 44.2643C175.962 44.3343 176.029 44.4144 176.111 44.5045C176.193 44.5963 176.305 44.6756 176.447 44.7423C176.59 44.8107 176.778 44.8449 177.01 44.8449C177.32 44.8449 177.576 44.7699 177.778 44.6197C177.98 44.4695 178.081 44.2342 178.081 43.9138V43.1329H178.031C177.988 43.203 177.926 43.2898 177.846 43.3932C177.767 43.495 177.654 43.5859 177.505 43.666C177.359 43.7445 177.16 43.7837 176.91 43.7837C176.599 43.7837 176.321 43.7103 176.074 43.5634C175.828 43.4166 175.634 43.203 175.491 42.9226C175.349 42.6423 175.278 42.3019 175.278 41.9014C175.278 41.5076 175.347 41.1647 175.485 40.8727C175.624 40.579 175.817 40.3521 176.064 40.1919C176.311 40.03 176.596 39.9491 176.92 39.9491C177.17 39.9491 177.369 39.9908 177.515 40.0742C177.664 40.156 177.777 40.2495 177.856 40.3546C177.936 40.458 177.998 40.5431 178.041 40.6099H178.101V39.9992H178.672V43.9539C178.672 44.2843 178.597 44.5529 178.447 44.7598C178.298 44.9684 178.098 45.1211 177.846 45.2179C177.596 45.3163 177.317 45.3656 177.01 45.3656ZM176.99 43.253C177.227 43.253 177.427 43.1988 177.591 43.0903C177.754 42.9819 177.878 42.8259 177.963 42.6223C178.049 42.4187 178.091 42.1751 178.091 41.8914C178.091 41.6144 178.049 41.37 177.966 41.158C177.883 40.9461 177.759 40.7801 177.596 40.6599C177.432 40.5398 177.23 40.4797 176.99 40.4797C176.739 40.4797 176.531 40.5431 176.364 40.67C176.199 40.7968 176.075 40.967 175.991 41.1806C175.909 41.3942 175.868 41.6311 175.868 41.8914C175.868 42.1584 175.91 42.3945 175.994 42.5998C176.079 42.8033 176.204 42.9635 176.369 43.0803C176.536 43.1955 176.743 43.253 176.99 43.253ZM182.326 38.7176V43.8438H181.735V38.7176H182.326ZM185.02 43.9238C184.65 43.9238 184.33 43.8421 184.061 43.6786C183.794 43.5134 183.588 43.2831 183.443 42.9877C183.3 42.6907 183.228 42.3453 183.228 41.9515C183.228 41.5577 183.3 41.2106 183.443 40.9102C183.588 40.6082 183.79 40.3729 184.049 40.2044C184.309 40.0342 184.613 39.9491 184.96 39.9491C185.16 39.9491 185.358 39.9825 185.553 40.0492C185.748 40.116 185.926 40.2244 186.086 40.3746C186.246 40.5231 186.374 40.72 186.469 40.9653C186.564 41.2106 186.612 41.5126 186.612 41.8714V42.1217H183.648V41.6111H186.011C186.011 41.3942 185.968 41.2006 185.881 41.0304C185.796 40.8602 185.674 40.7259 185.516 40.6274C185.359 40.529 185.174 40.4797 184.96 40.4797C184.725 40.4797 184.521 40.5381 184.349 40.6549C184.179 40.7701 184.048 40.9203 183.956 41.1055C183.864 41.2907 183.819 41.4893 183.819 41.7012V42.0416C183.819 42.3319 183.869 42.5781 183.969 42.78C184.071 42.9802 184.212 43.1329 184.392 43.238C184.572 43.3415 184.781 43.3932 185.02 43.3932C185.175 43.3932 185.315 43.3715 185.441 43.3281C185.567 43.2831 185.677 43.2163 185.768 43.1279C185.86 43.0378 185.931 42.926 185.981 42.7925L186.552 42.9527C186.492 43.1463 186.391 43.3165 186.249 43.4633C186.107 43.6085 185.932 43.7219 185.723 43.8037C185.515 43.8838 185.28 43.9238 185.02 43.9238ZM189.223 39.9992V40.4998H187.15V39.9992H189.223ZM187.771 43.8438V39.4685C187.771 39.2483 187.823 39.0647 187.926 38.9179C188.029 38.771 188.164 38.6609 188.329 38.5875C188.494 38.514 188.669 38.4773 188.852 38.4773C188.997 38.4773 189.116 38.489 189.208 38.5124C189.299 38.5357 189.368 38.5574 189.413 38.5775L189.243 39.0881C189.213 39.0781 189.171 39.0655 189.117 39.0505C189.066 39.0355 188.997 39.028 188.912 39.028C188.717 39.028 188.576 39.0772 188.489 39.1757C188.404 39.2741 188.362 39.4185 188.362 39.6087V43.8438H187.771ZM191.722 39.9992V40.4998H189.73V39.9992H191.722ZM190.311 39.0781H190.901V42.7424C190.901 42.9093 190.926 43.0344 190.974 43.1179C191.024 43.1996 191.087 43.2547 191.164 43.2831C191.243 43.3098 191.325 43.3231 191.412 43.3231C191.477 43.3231 191.531 43.3198 191.572 43.3131C191.614 43.3048 191.647 43.2981 191.672 43.2931L191.792 43.8237C191.752 43.8387 191.697 43.8538 191.625 43.8688C191.553 43.8855 191.462 43.8938 191.352 43.8938C191.185 43.8938 191.022 43.8579 190.861 43.7862C190.703 43.7144 190.571 43.6051 190.466 43.4583C190.362 43.3114 190.311 43.1262 190.311 42.9026V39.0781Z" fill="#70707B"/>
<g opacity="0.7">
<path d="M10.1226 61.8438V55.8633H12.1434C12.6126 55.8633 12.9961 55.948 13.2939 56.1173C13.5937 56.2847 13.8157 56.5115 13.9597 56.7977C14.1038 57.0839 14.1758 57.4032 14.1758 57.7555C14.1758 58.1079 14.1038 58.4281 13.9597 58.7163C13.8176 59.0044 13.5976 59.2341 13.2998 59.4054C13.0019 59.5748 12.6203 59.6595 12.1551 59.6595H10.7067V59.017H12.1317C12.4529 59.017 12.7109 58.9616 12.9055 58.8506C13.1002 58.7396 13.2414 58.5897 13.329 58.4009C13.4185 58.2101 13.4633 57.995 13.4633 57.7555C13.4633 57.5161 13.4185 57.3019 13.329 57.1131C13.2414 56.9243 13.0992 56.7763 12.9026 56.6692C12.706 56.5602 12.4451 56.5057 12.12 56.5057H10.8468V61.8438H10.1226ZM15.249 61.8438V57.3584H15.9148V58.0359H15.9615C16.0433 57.8139 16.1912 57.6339 16.4054 57.4956C16.6195 57.3574 16.8609 57.2883 17.1295 57.2883C17.1802 57.2883 17.2434 57.2893 17.3194 57.2912C17.3953 57.2932 17.4527 57.2961 17.4916 57.3V58.0008C17.4683 57.995 17.4148 57.9862 17.331 57.9745C17.2493 57.9609 17.1626 57.9541 17.0711 57.9541C16.8531 57.9541 16.6584 57.9999 16.4871 58.0914C16.3177 58.1809 16.1834 58.3055 16.0841 58.4651C15.9868 58.6228 15.9381 58.8029 15.9381 59.0054V61.8438H15.249ZM19.9942 61.9372C19.5893 61.9372 19.234 61.8408 18.9284 61.6481C18.6247 61.4554 18.3872 61.1857 18.2158 60.8392C18.0465 60.4927 17.9618 60.0878 17.9618 59.6244C17.9618 59.1572 18.0465 58.7494 18.2158 58.4009C18.3872 58.0524 18.6247 57.7818 18.9284 57.5891C19.234 57.3964 19.5893 57.3 19.9942 57.3C20.3992 57.3 20.7535 57.3964 21.0572 57.5891C21.3628 57.7818 21.6003 58.0524 21.7697 58.4009C21.941 58.7494 22.0267 59.1572 22.0267 59.6244C22.0267 60.0878 21.941 60.4927 21.7697 60.8392C21.6003 61.1857 21.3628 61.4554 21.0572 61.6481C20.7535 61.8408 20.3992 61.9372 19.9942 61.9372ZM19.9942 61.3181C20.3018 61.3181 20.5549 61.2393 20.7535 61.0816C20.952 60.9239 21.099 60.7166 21.1944 60.4596C21.2898 60.2026 21.3375 59.9242 21.3375 59.6244C21.3375 59.3246 21.2898 59.0453 21.1944 58.7863C21.099 58.5274 20.952 58.3181 20.7535 58.1585C20.5549 57.9989 20.3018 57.9191 19.9942 57.9191C19.6866 57.9191 19.4336 57.9989 19.235 58.1585C19.0364 58.3181 18.8894 58.5274 18.794 58.7863C18.6986 59.0453 18.651 59.3246 18.651 59.6244C18.651 59.9242 18.6986 60.2026 18.794 60.4596C18.8894 60.7166 19.0364 60.9239 19.235 61.0816C19.4336 61.2393 19.6866 61.3181 19.9942 61.3181ZM25.0293 57.3584V57.9424H22.7049V57.3584H25.0293ZM23.3823 56.2838H24.0715V60.5589C24.0715 60.7536 24.0997 60.8996 24.1562 60.9969C24.2146 61.0923 24.2886 61.1565 24.3781 61.1896C24.4696 61.2208 24.566 61.2364 24.6672 61.2364C24.7431 61.2364 24.8054 61.2325 24.8541 61.2247C24.9028 61.2149 24.9417 61.2072 24.9709 61.2013L25.1111 61.8204C25.0643 61.8379 24.9991 61.8554 24.9154 61.873C24.8317 61.8924 24.7256 61.9022 24.5971 61.9022C24.4024 61.9022 24.2117 61.8603 24.0248 61.7766C23.8398 61.6929 23.686 61.5654 23.5634 61.394C23.4427 61.2227 23.3823 61.0066 23.3823 60.7458V56.2838ZM27.8984 61.9372C27.4662 61.9372 27.0934 61.8418 26.7799 61.651C26.4685 61.4583 26.228 61.1896 26.0587 60.8451C25.8912 60.4985 25.8075 60.0956 25.8075 59.6361C25.8075 59.1767 25.8912 58.7717 26.0587 58.4213C26.228 58.069 26.4636 57.7945 26.7653 57.5978C27.069 57.3993 27.4233 57.3 27.8283 57.3C28.0619 57.3 28.2926 57.3389 28.5203 57.4168C28.7481 57.4947 28.9554 57.6212 29.1423 57.7964C29.3292 57.9697 29.4782 58.1994 29.5891 58.4856C29.7001 58.7717 29.7556 59.1241 29.7556 59.5427V59.8347H26.2981V59.239H29.0547C29.0547 58.9859 29.0041 58.7601 28.9029 58.5615C28.8036 58.3629 28.6615 58.2062 28.4765 58.0914C28.2935 57.9765 28.0775 57.9191 27.8283 57.9191C27.5538 57.9191 27.3163 57.9872 27.1158 58.1235C26.9172 58.2578 26.7644 58.433 26.6573 58.6491C26.5502 58.8652 26.4967 59.0969 26.4967 59.3441V59.7412C26.4967 60.08 26.5551 60.3671 26.6719 60.6027C26.7906 60.8363 26.9551 61.0144 27.1654 61.1371C27.3756 61.2578 27.62 61.3181 27.8984 61.3181C28.0794 61.3181 28.2429 61.2928 28.3889 61.2422C28.5369 61.1896 28.6644 61.1118 28.7715 61.0086C28.8786 60.9035 28.9613 60.773 29.0197 60.6173L29.6855 60.8042C29.6154 61.03 29.4976 61.2286 29.3321 61.3999C29.1667 61.5693 28.9623 61.7016 28.7189 61.797C28.4756 61.8905 28.202 61.9372 27.8984 61.9372ZM30.8039 61.8438V57.3584H31.4931V61.8438H30.8039ZM31.1543 56.6108C31.02 56.6108 30.9042 56.5651 30.8068 56.4736C30.7114 56.3821 30.6637 56.2721 30.6637 56.1436C30.6637 56.0151 30.7114 55.9051 30.8068 55.8136C30.9042 55.7221 31.02 55.6764 31.1543 55.6764C31.2887 55.6764 31.4035 55.7221 31.4989 55.8136C31.5962 55.9051 31.6449 56.0151 31.6449 56.1436C31.6449 56.2721 31.5962 56.3821 31.4989 56.4736C31.4035 56.5651 31.2887 56.6108 31.1543 56.6108ZM33.4445 59.1455V61.8438H32.7553V57.3584H33.4211V58.0592H33.4795C33.5846 57.8315 33.7443 57.6485 33.9584 57.5102C34.1726 57.3701 34.449 57.3 34.7877 57.3C35.0914 57.3 35.3572 57.3623 35.5849 57.4869C35.8127 57.6095 35.9899 57.7964 36.1164 58.0475C36.2429 58.2967 36.3062 58.6121 36.3062 58.9937V61.8438H35.6171V59.0404C35.6171 58.688 35.5256 58.4135 35.3426 58.2169C35.1596 58.0183 34.9084 57.9191 34.5892 57.9191C34.3692 57.9191 34.1726 57.9668 33.9993 58.0621C33.828 58.1575 33.6927 58.2967 33.5934 58.4797C33.4941 58.6627 33.4445 58.8847 33.4445 59.1455Z" fill="#FCFCFC"/>
<rect x="169.021" y="52.8438" width="23.0484" height="15.6989" rx="2.34947" fill="#3366FF" fill-opacity="0.1"/>
<path d="M173.611 63.1934V62.4124L175.436 60.7229C175.591 60.5727 175.721 60.4376 175.826 60.3174C175.933 60.1973 176.014 60.0796 176.069 59.9645C176.124 59.8477 176.151 59.7217 176.151 59.5866C176.151 59.4364 176.117 59.307 176.049 59.1986C175.98 59.0885 175.887 59.0042 175.768 58.9458C175.65 58.8857 175.516 58.8557 175.365 58.8557C175.209 58.8557 175.072 58.8874 174.955 58.9508C174.838 59.0142 174.748 59.1051 174.685 59.2236C174.621 59.3421 174.589 59.4831 174.589 59.6466H173.561C173.561 59.3112 173.637 59.02 173.789 58.7731C173.94 58.5261 174.153 58.3351 174.427 58.1999C174.7 58.0647 175.016 57.9972 175.373 57.9972C175.74 57.9972 176.06 58.0622 176.332 58.1924C176.605 58.3209 176.818 58.4994 176.97 58.728C177.122 58.9566 177.198 59.2186 177.198 59.514C177.198 59.7075 177.159 59.8986 177.082 60.0871C177.007 60.2757 176.873 60.4851 176.679 60.7154C176.486 60.944 176.213 61.2185 175.861 61.5389L175.113 62.2723V62.3073H177.265V63.1934H173.611ZM180.06 63.306C179.63 63.3043 179.259 63.1984 178.949 62.9881C178.64 62.7779 178.403 62.4733 178.236 62.0745C178.071 61.6757 177.989 61.196 177.99 60.6353C177.99 60.0763 178.073 59.5999 178.238 59.2061C178.405 58.8123 178.643 58.5128 178.952 58.3075C179.262 58.1006 179.632 57.9972 180.06 57.9972C180.489 57.9972 180.858 58.1006 181.167 58.3075C181.477 58.5144 181.716 58.8148 181.883 59.2086C182.049 59.6007 182.132 60.0763 182.13 60.6353C182.13 61.1976 182.047 61.6782 181.88 62.077C181.715 62.4758 181.478 62.7804 181.169 62.9906C180.861 63.2009 180.491 63.306 180.06 63.306ZM180.06 62.4074C180.354 62.4074 180.589 62.2597 180.764 61.9644C180.939 61.669 181.026 61.226 181.024 60.6353C181.024 60.2465 180.984 59.9228 180.904 59.6641C180.825 59.4055 180.714 59.2111 180.569 59.0809C180.425 58.9508 180.256 58.8857 180.06 58.8857C179.768 58.8857 179.535 59.0317 179.36 59.3237C179.184 59.6158 179.096 60.0529 179.094 60.6353C179.094 61.0291 179.133 61.3578 179.212 61.6215C179.292 61.8835 179.405 62.0804 179.55 62.2122C179.695 62.3423 179.865 62.4074 180.06 62.4074ZM185.709 62.2322V61.9619C185.709 61.7566 185.752 61.5681 185.839 61.3962C185.928 61.2227 186.055 61.0842 186.222 60.9807C186.391 60.8756 186.596 60.823 186.838 60.823C187.083 60.823 187.289 60.8748 187.456 60.9782C187.625 61.0817 187.751 61.2202 187.837 61.3937C187.923 61.5656 187.967 61.755 187.967 61.9619V62.2322C187.967 62.4375 187.923 62.6268 187.837 62.8004C187.75 62.9723 187.622 63.1099 187.454 63.2134C187.285 63.3185 187.08 63.3711 186.838 63.3711C186.593 63.3711 186.387 63.3185 186.22 63.2134C186.053 63.1099 185.926 62.9723 185.839 62.8004C185.752 62.6268 185.709 62.4375 185.709 62.2322ZM186.437 61.9619V62.2322C186.437 62.3507 186.466 62.4625 186.523 62.5676C186.581 62.6727 186.686 62.7253 186.838 62.7253C186.99 62.7253 187.093 62.6736 187.148 62.5701C187.205 62.4667 187.233 62.354 187.233 62.2322V61.9619C187.233 61.8401 187.207 61.7266 187.153 61.6215C187.1 61.5164 186.995 61.4638 186.838 61.4638C186.688 61.4638 186.583 61.5164 186.525 61.6215C186.467 61.7266 186.437 61.8401 186.437 61.9619ZM183.078 59.2987V59.0284C183.078 58.8215 183.123 58.6321 183.211 58.4602C183.299 58.2867 183.427 58.1482 183.594 58.0447C183.763 57.9413 183.966 57.8895 184.205 57.8895C184.452 57.8895 184.659 57.9413 184.825 58.0447C184.992 58.1482 185.119 58.2867 185.206 58.4602C185.293 58.6321 185.336 58.8215 185.336 59.0284V59.2987C185.336 59.5056 185.292 59.695 185.203 59.8669C185.117 60.0388 184.989 60.1764 184.82 60.2799C184.654 60.3817 184.448 60.4326 184.205 60.4326C183.961 60.4326 183.755 60.3808 183.586 60.2774C183.42 60.1722 183.293 60.0346 183.206 59.8644C183.121 59.6925 183.078 59.504 183.078 59.2987ZM183.812 59.0284V59.2987C183.812 59.4205 183.84 59.5332 183.897 59.6366C183.955 59.7401 184.058 59.7918 184.205 59.7918C184.358 59.7918 184.463 59.7401 184.518 59.6366C184.574 59.5332 184.603 59.4205 184.603 59.2987V59.0284C184.603 58.9066 184.576 58.7931 184.523 58.688C184.469 58.5829 184.363 58.5303 184.205 58.5303C184.056 58.5303 183.954 58.5837 183.897 58.6905C183.84 58.7973 183.812 58.9099 183.812 59.0284ZM183.409 63.1934L186.933 58.0672H187.589L184.065 63.1934H183.409Z" fill="#7E53ED"/>
<rect x="9.39844" y="73.2412" width="182.672" height="2.34947" rx="1.17474" fill="#26272B"/>
<path d="M9.39844 74.4159C9.39844 73.7672 9.92438 73.2412 10.5732 73.2412H66.6289C67.2777 73.2412 67.8036 73.7672 67.8036 74.4159C67.8036 75.0647 67.2777 75.5907 66.6289 75.5907H10.5732C9.92439 75.5907 9.39844 75.0647 9.39844 74.4159Z" fill="#7B61FF"/>
<path d="M12.3828 88.4214C11.8805 88.4195 11.4483 88.2959 11.0862 88.0506C10.7261 87.8053 10.4487 87.45 10.254 86.9847C10.0612 86.5195 9.96585 85.9598 9.9678 85.3056C9.9678 84.6535 10.0642 84.0977 10.2569 83.6382C10.4516 83.1788 10.729 82.8293 11.0891 82.5899C11.4512 82.3485 11.8824 82.2278 12.3828 82.2278C12.8831 82.2278 13.3133 82.3485 13.6735 82.5899C14.0356 82.8313 14.314 83.1817 14.5086 83.6412C14.7033 84.0986 14.7997 84.6535 14.7977 85.3056C14.7977 85.9617 14.7004 86.5224 14.5057 86.9876C14.313 87.4529 14.0365 87.8082 13.6764 88.0535C13.3162 88.2988 12.885 88.4214 12.3828 88.4214ZM12.3828 87.3731C12.7254 87.3731 12.9989 87.2008 13.2033 86.8562C13.4077 86.5117 13.509 85.9948 13.507 85.3056C13.507 84.852 13.4603 84.4744 13.3669 84.1726C13.2754 83.8709 13.1449 83.6441 12.9756 83.4922C12.8081 83.3404 12.6105 83.2645 12.3828 83.2645C12.0421 83.2645 11.7695 83.4348 11.5651 83.7755C11.3607 84.1162 11.2575 84.6262 11.2556 85.3056C11.2556 85.7651 11.3013 86.1486 11.3928 86.4562C11.4863 86.7618 11.6177 86.9915 11.7871 87.1453C11.9564 87.2972 12.155 87.3731 12.3828 87.3731ZM17.7318 90.0655C17.3288 90.0655 16.9832 90.01 16.6951 89.899C16.4089 89.79 16.1812 89.6411 16.0118 89.4523C15.8424 89.2634 15.7324 89.0512 15.6818 88.8157L16.8324 88.6609C16.8674 88.7505 16.9229 88.8342 16.9988 88.912C17.0747 88.9899 17.175 89.0522 17.2996 89.0989C17.4261 89.1476 17.5799 89.1719 17.761 89.1719C18.0316 89.1719 18.2545 89.1057 18.4297 88.9734C18.6068 88.8429 18.6954 88.6239 18.6954 88.3163V87.4958H18.6429C18.5883 87.6204 18.5066 87.7381 18.3976 87.8491C18.2885 87.9601 18.1484 88.0506 17.9771 88.1207C17.8057 88.1908 17.6013 88.2258 17.3638 88.2258C17.027 88.2258 16.7204 88.1479 16.444 87.9922C16.1695 87.8345 15.9505 87.5941 15.7869 87.2709C15.6254 86.9458 15.5446 86.535 15.5446 86.0386C15.5446 85.5305 15.6273 85.1061 15.7928 84.7654C15.9583 84.4247 16.1782 84.1697 16.4527 84.0003C16.7292 83.831 17.0319 83.7463 17.3609 83.7463C17.612 83.7463 17.8223 83.7891 17.9917 83.8748C18.161 83.9585 18.2973 84.0636 18.4005 84.1901C18.5056 84.3147 18.5864 84.4374 18.6429 84.5581H18.6896V83.8047H19.9248V88.3338C19.9248 88.7154 19.8314 89.0347 19.6445 89.2917C19.4576 89.5486 19.1987 89.7414 18.8677 89.8698C18.5387 90.0003 18.1601 90.0655 17.7318 90.0655ZM17.758 87.2913C17.9586 87.2913 18.1279 87.2417 18.2662 87.1424C18.4063 87.0412 18.5134 86.8971 18.5874 86.7102C18.6633 86.5214 18.7013 86.2956 18.7013 86.0328C18.7013 85.7699 18.6643 85.5422 18.5903 85.3494C18.5163 85.1548 18.4092 85.0039 18.2691 84.8968C18.1289 84.7897 17.9586 84.7362 17.758 84.7362C17.5536 84.7362 17.3813 84.7917 17.2412 84.9027C17.101 85.0117 16.9949 85.1635 16.9229 85.3582C16.8508 85.5529 16.8148 85.7777 16.8148 86.0328C16.8148 86.2917 16.8508 86.5156 16.9229 86.7044C16.9969 86.8913 17.103 87.0363 17.2412 87.1395C17.3813 87.2407 17.5536 87.2913 17.758 87.2913ZM24.8445 88.3776C24.3909 88.3776 23.9987 88.2813 23.6677 88.0885C23.3387 87.8939 23.0847 87.6233 22.9055 87.2767C22.7264 86.9283 22.6369 86.5243 22.6369 86.0649C22.6369 85.6015 22.7264 85.1966 22.9055 84.8501C23.0847 84.5016 23.3387 84.231 23.6677 84.0383C23.9987 83.8436 24.3909 83.7463 24.8445 83.7463C25.2981 83.7463 25.6894 83.8436 26.0184 84.0383C26.3494 84.231 26.6044 84.5016 26.7835 84.8501C26.9626 85.1966 27.0522 85.6015 27.0522 86.0649C27.0522 86.5243 26.9626 86.9283 26.7835 87.2767C26.6044 87.6233 26.3494 87.8939 26.0184 88.0885C25.6894 88.2813 25.2981 88.3776 24.8445 88.3776ZM24.8504 87.414C25.0567 87.414 25.229 87.3556 25.3672 87.2388C25.5055 87.12 25.6096 86.9584 25.6797 86.754C25.7517 86.5496 25.7877 86.317 25.7877 86.0561C25.7877 85.7953 25.7517 85.5626 25.6797 85.3582C25.6096 85.1538 25.5055 84.9922 25.3672 84.8735C25.229 84.7547 25.0567 84.6953 24.8504 84.6953C24.6421 84.6953 24.4669 84.7547 24.3247 84.8735C24.1846 84.9922 24.0785 85.1538 24.0064 85.3582C23.9364 85.5626 23.9013 85.7953 23.9013 86.0561C23.9013 86.317 23.9364 86.5496 24.0064 86.754C24.0785 86.9584 24.1846 87.12 24.3247 87.2388C24.4669 87.3556 24.6421 87.414 24.8504 87.414ZM30.2731 83.8047V84.7391H27.5048V83.8047H30.2731ZM28.1385 88.29V83.4805C28.1385 83.1554 28.2017 82.8858 28.3283 82.6717C28.4568 82.4575 28.632 82.2969 28.8539 82.1898C29.0758 82.0828 29.3279 82.0292 29.6102 82.0292C29.801 82.0292 29.9752 82.0438 30.1329 82.073C30.2926 82.1022 30.4113 82.1285 30.4892 82.1519L30.2673 83.0863C30.2186 83.0707 30.1582 83.0561 30.0862 83.0425C30.0161 83.0289 29.9441 83.0221 29.8701 83.0221C29.6871 83.0221 29.5596 83.0649 29.4876 83.1506C29.4155 83.2343 29.3795 83.3521 29.3795 83.5039V88.29H28.1385ZM32.9246 88.29V87.379L35.0534 85.4078C35.2344 85.2326 35.3863 85.0749 35.5089 84.9348C35.6335 84.7946 35.728 84.6574 35.7922 84.523C35.8564 84.3868 35.8886 84.2398 35.8886 84.0821C35.8886 83.9069 35.8487 83.756 35.7688 83.6295C35.689 83.501 35.58 83.4027 35.4418 83.3345C35.3036 83.2645 35.1468 83.2294 34.9716 83.2294C34.7886 83.2294 34.629 83.2664 34.4927 83.3404C34.3565 83.4144 34.2513 83.5205 34.1773 83.6587C34.1034 83.7969 34.0664 83.9614 34.0664 84.1522H32.8662C32.8662 83.7609 32.9548 83.4212 33.1319 83.133C33.3091 82.8449 33.5573 82.622 33.8766 82.4643C34.1958 82.3066 34.5638 82.2278 34.9804 82.2278C35.4087 82.2278 35.7815 82.3037 36.0988 82.4556C36.4181 82.6055 36.6663 82.8138 36.8435 83.0805C37.0206 83.3472 37.1092 83.6528 37.1092 83.9974C37.1092 84.2232 37.0644 84.4461 36.9749 84.6661C36.8873 84.8861 36.7305 85.1304 36.5047 85.3991C36.2789 85.6658 35.9606 85.986 35.5498 86.3598L34.6767 87.2154V87.2563H37.188V88.29H32.9246ZM40.3148 88.3718C39.8787 88.3718 39.4903 88.2969 39.1496 88.147C38.8109 87.9951 38.5432 87.7868 38.3466 87.522C38.1519 87.2553 38.0517 86.9477 38.0458 86.5993H39.319C39.3268 86.7453 39.3745 86.8738 39.4621 86.9847C39.5517 87.0937 39.6704 87.1784 39.8184 87.2388C39.9663 87.2991 40.1328 87.3293 40.3177 87.3293C40.5104 87.3293 40.6808 87.2952 40.8287 87.2271C40.9767 87.159 41.0925 87.0645 41.1762 86.9438C41.2599 86.8231 41.3018 86.684 41.3018 86.5263C41.3018 86.3666 41.257 86.2255 41.1675 86.1028C41.0799 85.9782 40.9533 85.8809 40.7879 85.8108C40.6243 85.7407 40.4296 85.7057 40.2038 85.7057H39.6461V84.7771H40.2038C40.3946 84.7771 40.563 84.744 40.709 84.6778C40.857 84.6116 40.9718 84.5201 41.0536 84.4033C41.1353 84.2846 41.1762 84.1463 41.1762 83.9887C41.1762 83.8387 41.1402 83.7073 41.0682 83.5944C40.9981 83.4796 40.8988 83.39 40.7703 83.3258C40.6438 83.2615 40.4958 83.2294 40.3265 83.2294C40.1552 83.2294 39.9984 83.2606 39.8563 83.3229C39.7142 83.3832 39.6003 83.4698 39.5147 83.5827C39.429 83.6957 39.3833 83.828 39.3774 83.9799H38.1656C38.1714 83.6353 38.2697 83.3316 38.4605 83.0688C38.6513 82.806 38.9082 82.6006 39.2314 82.4526C39.5565 82.3027 39.9235 82.2278 40.3323 82.2278C40.745 82.2278 41.1061 82.3027 41.4157 82.4526C41.7252 82.6025 41.9656 82.805 42.137 83.06C42.3102 83.3131 42.3959 83.5973 42.3939 83.9127C42.3959 84.2476 42.2917 84.5269 42.0815 84.7508C41.8732 84.9747 41.6016 85.1168 41.2668 85.1772V85.2239C41.7067 85.2803 42.0416 85.4332 42.2713 85.6823C42.503 85.9296 42.6178 86.2391 42.6159 86.6109C42.6178 86.9516 42.5195 87.2544 42.3209 87.5191C42.1243 87.7839 41.8527 87.9922 41.5062 88.144C41.1597 88.2959 40.7625 88.3718 40.3148 88.3718ZM45.5572 90.0655C45.1542 90.0655 44.8087 90.01 44.5205 89.899C44.2344 89.79 44.0066 89.6411 43.8372 89.4523C43.6679 89.2634 43.5579 89.0512 43.5072 88.8157L44.6578 88.6609C44.6928 88.7505 44.7483 88.8342 44.8242 88.912C44.9002 88.9899 45.0004 89.0522 45.125 89.0989C45.2516 89.1476 45.4053 89.1719 45.5864 89.1719C45.857 89.1719 46.0799 89.1057 46.2551 88.9734C46.4323 88.8429 46.5208 88.6239 46.5208 88.3163V87.4958H46.4683C46.4138 87.6204 46.332 87.7381 46.223 87.8491C46.114 87.9601 45.9738 88.0506 45.8025 88.1207C45.6312 88.1908 45.4268 88.2258 45.1893 88.2258C44.8525 88.2258 44.5459 88.1479 44.2694 87.9922C43.9949 87.8345 43.7759 87.5941 43.6124 87.2709C43.4508 86.9458 43.37 86.535 43.37 86.0386C43.37 85.5305 43.4527 85.1061 43.6182 84.7654C43.7837 84.4247 44.0037 84.1697 44.2782 84.0003C44.5546 83.831 44.8573 83.7463 45.1863 83.7463C45.4375 83.7463 45.6477 83.7891 45.8171 83.8748C45.9865 83.9585 46.1227 84.0636 46.2259 84.1901C46.331 84.3147 46.4118 84.4374 46.4683 84.5581H46.515V83.8047H47.7502V88.3338C47.7502 88.7154 47.6568 89.0347 47.4699 89.2917C47.283 89.5486 47.0241 89.7414 46.6931 89.8698C46.3641 90.0003 45.9855 90.0655 45.5572 90.0655ZM45.5835 87.2913C45.784 87.2913 45.9534 87.2417 46.0916 87.1424C46.2318 87.0412 46.3388 86.8971 46.4128 86.7102C46.4887 86.5214 46.5267 86.2956 46.5267 86.0328C46.5267 85.7699 46.4897 85.5422 46.4157 85.3494C46.3417 85.1548 46.2347 85.0039 46.0945 84.8968C45.9543 84.7897 45.784 84.7362 45.5835 84.7362C45.3791 84.7362 45.2068 84.7917 45.0666 84.9027C44.9264 85.0117 44.8203 85.1635 44.7483 85.3582C44.6763 85.5529 44.6403 85.7777 44.6403 86.0328C44.6403 86.2917 44.6763 86.5156 44.7483 86.7044C44.8223 86.8913 44.9284 87.0363 45.0666 87.1395C45.2068 87.2407 45.3791 87.2913 45.5835 87.2913Z" fill="#FCFCFC"/>
<path d="M166.692 87.29V86.8395L168.385 84.9873C168.583 84.7704 168.747 84.5818 168.875 84.4216C169.004 84.2598 169.099 84.1079 169.16 83.9661C169.224 83.8226 169.256 83.6724 169.256 83.5155C169.256 83.3353 169.212 83.1793 169.125 83.0475C169.04 82.9156 168.923 82.8139 168.775 82.7421C168.626 82.6704 168.46 82.6345 168.274 82.6345C168.077 82.6345 167.906 82.6754 167.759 82.7571C167.614 82.8372 167.501 82.9499 167.421 83.095C167.342 83.2402 167.303 83.4104 167.303 83.6056H166.713C166.713 83.3053 166.782 83.0416 166.92 82.8147C167.059 82.5878 167.247 82.4109 167.486 82.2841C167.726 82.1572 167.996 82.0938 168.294 82.0938C168.595 82.0938 168.861 82.1572 169.093 82.2841C169.325 82.4109 169.507 82.5819 169.639 82.7972C169.77 83.0124 169.836 83.2519 169.836 83.5155C169.836 83.7041 169.802 83.8885 169.734 84.0687C169.667 84.2472 169.55 84.4466 169.383 84.6669C169.218 84.8855 168.989 85.1525 168.695 85.4679L167.544 86.6993V86.7394H169.926V87.29H166.692ZM172.692 87.3601C172.362 87.3601 172.067 87.3034 171.809 87.1899C171.552 87.0765 171.347 86.9188 171.195 86.7169C171.045 86.5133 170.963 86.2772 170.95 86.0085H171.581C171.594 86.1737 171.651 86.3164 171.751 86.4365C171.851 86.555 171.982 86.6468 172.144 86.7118C172.306 86.7769 172.485 86.8095 172.682 86.8095C172.902 86.8095 173.098 86.7711 173.268 86.6943C173.438 86.6176 173.572 86.5108 173.668 86.3739C173.765 86.2371 173.814 86.0786 173.814 85.8984C173.814 85.7098 173.767 85.5438 173.673 85.4003C173.58 85.2551 173.443 85.1416 173.263 85.0599C173.083 84.9781 172.862 84.9372 172.602 84.9372H172.192V84.3866H172.602C172.806 84.3866 172.984 84.3499 173.138 84.2764C173.293 84.203 173.414 84.0996 173.501 83.9661C173.589 83.8326 173.633 83.6757 173.633 83.4955C173.633 83.322 173.595 83.171 173.518 83.0425C173.441 82.914 173.333 82.8139 173.193 82.7421C173.054 82.6704 172.891 82.6345 172.702 82.6345C172.525 82.6345 172.358 82.667 172.202 82.7321C172.046 82.7955 171.92 82.8881 171.821 83.0099C171.723 83.1301 171.669 83.2752 171.661 83.4454H171.06C171.07 83.1768 171.151 82.9415 171.303 82.7396C171.455 82.536 171.653 82.3775 171.899 82.264C172.146 82.1506 172.417 82.0938 172.712 82.0938C173.029 82.0938 173.301 82.1581 173.528 82.2866C173.755 82.4134 173.929 82.5811 174.051 82.7897C174.173 82.9982 174.234 83.2235 174.234 83.4655C174.234 83.7541 174.158 84.0003 174.006 84.2039C173.856 84.4074 173.652 84.5484 173.393 84.6269V84.6669C173.717 84.7203 173.97 84.858 174.151 85.0799C174.333 85.3002 174.424 85.573 174.424 85.8984C174.424 86.177 174.348 86.4273 174.196 86.6493C174.046 86.8695 173.841 87.0431 173.581 87.1699C173.32 87.2967 173.024 87.3601 172.692 87.3601ZM177.01 88.8119C176.724 88.8119 176.479 88.7751 176.274 88.7017C176.069 88.63 175.898 88.5349 175.761 88.4164C175.626 88.2996 175.518 88.1744 175.438 88.0409L175.909 87.7105C175.962 87.7806 176.029 87.8607 176.111 87.9508C176.193 88.0426 176.305 88.1219 176.447 88.1886C176.59 88.257 176.778 88.2912 177.01 88.2912C177.32 88.2912 177.576 88.2161 177.778 88.066C177.98 87.9158 178.081 87.6805 178.081 87.3601V86.5792H178.031C177.988 86.6493 177.926 86.736 177.846 86.8395C177.767 86.9413 177.654 87.0322 177.505 87.1123C177.359 87.1908 177.16 87.23 176.91 87.23C176.599 87.23 176.321 87.1565 176.074 87.0097C175.828 86.8629 175.634 86.6493 175.491 86.3689C175.349 86.0886 175.278 85.7482 175.278 85.3477C175.278 84.9539 175.347 84.611 175.485 84.319C175.624 84.0253 175.817 83.7984 176.064 83.6382C176.311 83.4763 176.596 83.3954 176.92 83.3954C177.17 83.3954 177.369 83.4371 177.515 83.5205C177.664 83.6023 177.777 83.6957 177.856 83.8009C177.936 83.9043 177.998 83.9894 178.041 84.0562H178.101V83.4454H178.672V87.4002C178.672 87.7306 178.597 87.9992 178.447 88.2061C178.298 88.4147 178.098 88.5674 177.846 88.6642C177.596 88.7626 177.317 88.8119 177.01 88.8119ZM176.99 86.6993C177.227 86.6993 177.427 86.6451 177.591 86.5366C177.754 86.4282 177.878 86.2722 177.963 86.0686C178.049 85.865 178.091 85.6214 178.091 85.3377C178.091 85.0607 178.049 84.8163 177.966 84.6043C177.883 84.3924 177.759 84.2264 177.596 84.1062C177.432 83.9861 177.23 83.926 176.99 83.926C176.739 83.926 176.531 83.9894 176.364 84.1162C176.199 84.2431 176.075 84.4133 175.991 84.6269C175.909 84.8404 175.868 85.0774 175.868 85.3377C175.868 85.6047 175.91 85.8408 175.994 86.0461C176.079 86.2496 176.204 86.4098 176.369 86.5266C176.536 86.6418 176.743 86.6993 176.99 86.6993ZM182.326 82.1639V87.29H181.735V82.1639H182.326ZM185.02 87.3701C184.65 87.3701 184.33 87.2884 184.061 87.1248C183.794 86.9596 183.588 86.7294 183.443 86.434C183.3 86.137 183.228 85.7916 183.228 85.3978C183.228 85.004 183.3 84.6569 183.443 84.3565C183.588 84.0545 183.79 83.8192 184.049 83.6507C184.309 83.4805 184.613 83.3954 184.96 83.3954C185.16 83.3954 185.358 83.4288 185.553 83.4955C185.748 83.5623 185.926 83.6707 186.086 83.8209C186.246 83.9694 186.374 84.1663 186.469 84.4116C186.564 84.6569 186.612 84.9589 186.612 85.3177V85.568H183.648V85.0574H186.011C186.011 84.8404 185.968 84.6469 185.881 84.4767C185.796 84.3065 185.674 84.1721 185.516 84.0737C185.359 83.9752 185.174 83.926 184.96 83.926C184.725 83.926 184.521 83.9844 184.349 84.1012C184.179 84.2164 184.048 84.3665 183.956 84.5518C183.864 84.737 183.819 84.9356 183.819 85.1475V85.4879C183.819 85.7782 183.869 86.0244 183.969 86.2263C184.071 86.4265 184.212 86.5792 184.392 86.6843C184.572 86.7878 184.781 86.8395 185.02 86.8395C185.175 86.8395 185.315 86.8178 185.441 86.7744C185.567 86.7294 185.677 86.6626 185.768 86.5742C185.86 86.4841 185.931 86.3723 185.981 86.2388L186.552 86.399C186.492 86.5925 186.391 86.7627 186.249 86.9096C186.107 87.0548 185.932 87.1682 185.723 87.25C185.515 87.3301 185.28 87.3701 185.02 87.3701ZM189.223 83.4454V83.946H187.15V83.4454H189.223ZM187.771 87.29V82.9148C187.771 82.6945 187.823 82.511 187.926 82.3642C188.029 82.2173 188.164 82.1072 188.329 82.0338C188.494 81.9603 188.669 81.9236 188.852 81.9236C188.997 81.9236 189.116 81.9353 189.208 81.9587C189.299 81.982 189.368 82.0037 189.413 82.0237L189.243 82.5344C189.213 82.5243 189.171 82.5118 189.117 82.4968C189.066 82.4818 188.997 82.4743 188.912 82.4743C188.717 82.4743 188.576 82.5235 188.489 82.622C188.404 82.7204 188.362 82.8648 188.362 83.055V87.29H187.771ZM191.722 83.4454V83.946H189.73V83.4454H191.722ZM190.311 82.5243H190.901V86.1887C190.901 86.3556 190.926 86.4807 190.974 86.5642C191.024 86.6459 191.087 86.701 191.164 86.7294C191.243 86.7561 191.325 86.7694 191.412 86.7694C191.477 86.7694 191.531 86.7661 191.572 86.7594C191.614 86.7511 191.647 86.7444 191.672 86.7394L191.792 87.27C191.752 87.285 191.697 87.3001 191.625 87.3151C191.553 87.3318 191.462 87.3401 191.352 87.3401C191.185 87.3401 191.022 87.3042 190.861 87.2325C190.703 87.1607 190.571 87.0514 190.466 86.9046C190.362 86.7577 190.311 86.5725 190.311 86.3489V82.5243Z" fill="#70707B"/>
</g>
</svg>
