<svg width="236" height="100" viewBox="0 0 236 100" fill="none" xmlns="http://www.w3.org/2000/svg">
<rect x="10.0684" y="14.7959" width="215.853" height="45.3103" rx="5.03447" fill="#18181B"/>
<path d="M10.0684 19.8304C10.0684 17.0499 12.3224 14.7959 15.1028 14.7959H35.2407V60.1062H15.1028C12.3224 60.1062 10.0684 57.8521 10.0684 55.0717V19.8304Z" fill="#26272B"/>
<path d="M23.4613 33.5437V39.9512H22.1066V34.8295H22.069L20.6017 35.7494V34.548L22.1879 33.5437H23.4613Z" fill="#FCFCFC"/>
<path d="M69.9098 26.2976V35.4512H67.9745V28.1346H67.9209L65.8247 29.4486V27.7323L68.0907 26.2976H69.9098ZM72.0854 35.4512V34.0567L75.3437 31.0398C75.6208 30.7716 75.8532 30.5302 76.0409 30.3157C76.2316 30.1012 76.3761 29.8911 76.4744 29.6855C76.5728 29.4769 76.6219 29.2519 76.6219 29.0106C76.6219 28.7424 76.5609 28.5115 76.4387 28.3178C76.3165 28.1212 76.1497 27.9707 75.9381 27.8664C75.7265 27.7591 75.4867 27.7055 75.2185 27.7055C74.9384 27.7055 74.6941 27.7621 74.4855 27.8753C74.2769 27.9886 74.116 28.1509 74.0028 28.3625C73.8896 28.5741 73.833 28.8258 73.833 29.1179H71.996C71.996 28.5189 72.1316 27.999 72.4027 27.558C72.6739 27.117 73.0538 26.7758 73.5424 26.5345C74.0311 26.2931 74.5943 26.1724 75.2319 26.1724C75.8875 26.1724 76.4581 26.2886 76.9437 26.5211C77.4324 26.7505 77.8123 27.0693 78.0835 27.4775C78.3546 27.8858 78.4902 28.3536 78.4902 28.881C78.4902 29.2266 78.4217 29.5678 78.2846 29.9045C78.1505 30.2412 77.9107 30.6151 77.565 31.0263C77.2194 31.4346 76.7322 31.9247 76.1035 32.4968L74.7671 33.8064V33.869H78.6109V35.4512H72.0854Z" fill="#FCFCFC"/>
<path d="M55.0477 42.8744V47.4512H54.08V43.7929H54.0532L53.0051 44.4499V43.5917L54.1381 42.8744H55.0477ZM56.6389 47.4512V46.7539L58.2681 45.2455C58.4066 45.1114 58.5228 44.9907 58.6167 44.8834C58.712 44.7762 58.7843 44.6711 58.8334 44.5683C58.8826 44.464 58.9072 44.3516 58.9072 44.2309C58.9072 44.0968 58.8767 43.9813 58.8156 43.8845C58.7545 43.7862 58.6711 43.7109 58.5653 43.6588C58.4595 43.6051 58.3396 43.5783 58.2055 43.5783C58.0654 43.5783 57.9433 43.6066 57.839 43.6632C57.7347 43.7199 57.6542 43.8011 57.5976 43.9068C57.541 44.0126 57.5127 44.1385 57.5127 44.2845H56.5942C56.5942 43.9851 56.662 43.7251 56.7976 43.5046C56.9332 43.2841 57.1231 43.1135 57.3674 42.9928C57.6118 42.8721 57.8934 42.8118 58.2122 42.8118C58.5399 42.8118 58.8253 42.8699 59.0681 42.9861C59.3124 43.1008 59.5024 43.2602 59.638 43.4644C59.7735 43.6685 59.8413 43.9024 59.8413 44.1661C59.8413 44.3389 59.8071 44.5095 59.7385 44.6778C59.6715 44.8462 59.5515 45.0332 59.3787 45.2388C59.2059 45.4429 58.9623 45.6879 58.648 45.974L57.9798 46.6288V46.6601H59.9017V47.4512H56.6389ZM63.2539 44.7851V45.5404H61.1666V44.7851H63.2539ZM66.5508 42.8744V47.4512H65.5831V43.7929H65.5563L64.5082 44.4499V43.5917L65.6412 42.8744H66.5508ZM69.8136 47.5137C69.4977 47.5137 69.2162 47.4556 68.9689 47.3394C68.723 47.2232 68.5279 47.0631 68.3833 46.859C68.2388 46.6549 68.1636 46.4209 68.1576 46.1572H69.0962C69.1067 46.3345 69.1812 46.4783 69.3197 46.5886C69.4583 46.6988 69.6229 46.7539 69.8136 46.7539C69.9656 46.7539 70.0996 46.7204 70.2159 46.6534C70.3335 46.5848 70.4252 46.4902 70.4907 46.3695C70.5578 46.2474 70.5913 46.1073 70.5913 45.9494C70.5913 45.7885 70.557 45.647 70.4885 45.5248C70.4214 45.4026 70.3283 45.3073 70.2091 45.2388C70.09 45.1702 69.9536 45.1352 69.8002 45.1337C69.6661 45.1337 69.5357 45.1613 69.4091 45.2164C69.284 45.2715 69.1864 45.3468 69.1163 45.4421L68.256 45.2879L68.4727 42.8744H71.2707V43.6655H69.2705L69.1521 44.8119H69.1789C69.2594 44.6987 69.3808 44.6048 69.5432 44.5303C69.7056 44.4558 69.8873 44.4186 70.0885 44.4186C70.3641 44.4186 70.6099 44.4834 70.8259 44.613C71.042 44.7426 71.2126 44.9207 71.3377 45.1471C71.4628 45.3721 71.5247 45.6313 71.5232 45.9248C71.5247 46.2332 71.4532 46.5074 71.3086 46.7472C71.1656 46.9856 70.9652 47.1733 70.7075 47.3104C70.4512 47.446 70.1533 47.5137 69.8136 47.5137ZM74.6883 47.4512V42.8744H76.494C76.8396 42.8744 77.1346 42.9362 77.379 43.0599C77.6248 43.182 77.8118 43.3556 77.9399 43.5806C78.0695 43.804 78.1343 44.067 78.1343 44.3694C78.1343 44.6734 78.0688 44.9348 77.9376 45.1538C77.8065 45.3714 77.6166 45.5382 77.3678 45.6544C77.1205 45.7706 76.821 45.8287 76.4694 45.8287H75.2604V45.051H76.313C76.4977 45.051 76.6512 45.0257 76.7733 44.9751C76.8955 44.9244 76.9864 44.8484 77.046 44.7471C77.1071 44.6458 77.1376 44.5199 77.1376 44.3694C77.1376 44.2175 77.1071 44.0893 77.046 43.9851C76.9864 43.8808 76.8948 43.8018 76.7711 43.7482C76.6489 43.693 76.4947 43.6655 76.3085 43.6655H75.656V47.4512H74.6883ZM77.16 45.3684L78.2974 47.4512H77.2292L76.1163 45.3684H77.16ZM79.3216 47.4512V42.8744H82.4056V43.6722H80.2892V44.7628H82.2469V45.5606H80.2892V46.6534H82.4145V47.4512H79.3216ZM83.6783 47.4512V42.8744H85.484C85.8311 42.8744 86.1269 42.9407 86.3712 43.0733C86.6156 43.2044 86.8018 43.3869 86.9299 43.6208C87.0595 43.8532 87.1243 44.1214 87.1243 44.4253C87.1243 44.7292 87.0588 44.9974 86.9277 45.2298C86.7966 45.4622 86.6066 45.6432 86.3578 45.7729C86.1105 45.9025 85.811 45.9673 85.4594 45.9673H84.3085V45.1918H85.303C85.4892 45.1918 85.6427 45.1598 85.7634 45.0957C85.8855 45.0302 85.9764 44.94 86.036 44.8253C86.0971 44.7091 86.1276 44.5758 86.1276 44.4253C86.1276 44.2733 86.0971 44.1407 86.036 44.0275C85.9764 43.9128 85.8855 43.8242 85.7634 43.7616C85.6412 43.6975 85.4863 43.6655 85.2985 43.6655H84.646V47.4512H83.6783ZM90.7391 44.1907C90.7213 44.0104 90.6445 43.8703 90.5089 43.7705C90.3734 43.6707 90.1894 43.6208 89.957 43.6208C89.799 43.6208 89.6657 43.6431 89.5569 43.6878C89.4482 43.731 89.3648 43.7914 89.3066 43.8688C89.25 43.9463 89.2217 44.0342 89.2217 44.1325C89.2187 44.2145 89.2359 44.286 89.2731 44.3471C89.3119 44.4082 89.3648 44.4611 89.4318 44.5058C89.4988 44.549 89.5763 44.587 89.6642 44.6197C89.7521 44.651 89.846 44.6778 89.9458 44.7002L90.357 44.7985C90.5566 44.8432 90.7399 44.9028 90.9067 44.9773C91.0736 45.0518 91.2181 45.1434 91.3403 45.2522C91.4624 45.3609 91.5571 45.4891 91.6241 45.6365C91.6926 45.784 91.7276 45.9531 91.7291 46.1438C91.7276 46.4239 91.6561 46.6668 91.5146 46.8724C91.3745 47.0765 91.1719 47.2351 90.9067 47.3484C90.643 47.4601 90.325 47.516 89.9525 47.516C89.583 47.516 89.2612 47.4594 88.9871 47.3461C88.7144 47.2329 88.5014 47.0653 88.3479 46.8433C88.196 46.6198 88.1163 46.3435 88.1088 46.0142H89.0452C89.0556 46.1677 89.0996 46.2958 89.177 46.3986C89.256 46.4999 89.361 46.5766 89.4921 46.6288C89.6247 46.6794 89.7745 46.7048 89.9413 46.7048C90.1052 46.7048 90.2475 46.6809 90.3682 46.6332C90.4903 46.5856 90.5849 46.5193 90.652 46.4344C90.719 46.3494 90.7525 46.2518 90.7525 46.1416C90.7525 46.0388 90.722 45.9524 90.6609 45.8824C90.6013 45.8123 90.5134 45.7528 90.3972 45.7036C90.2825 45.6544 90.1417 45.6097 89.9748 45.5695L89.4765 45.4444C89.0906 45.3505 88.7859 45.2037 88.5625 45.0041C88.339 44.8045 88.228 44.5356 88.2295 44.1974C88.228 43.9202 88.3017 43.6781 88.4507 43.4711C88.6012 43.264 88.8075 43.1023 89.0698 42.9861C89.332 42.8699 89.6299 42.8118 89.9637 42.8118C90.3034 42.8118 90.5998 42.8699 90.8531 42.9861C91.1079 43.1023 91.306 43.264 91.4475 43.4711C91.5891 43.6781 91.6621 43.918 91.6666 44.1907H90.7391Z" fill="#70707B"/>
<rect x="115.162" y="29.8994" width="0.629309" height="15.1034" rx="0.314655" fill="#70707B"/>
<path d="M149.357 35.5763C148.725 35.5763 148.162 35.4601 147.667 35.2277C147.176 34.9953 146.785 34.675 146.496 34.2667C146.207 33.8585 146.057 33.3907 146.045 32.8633H147.922C147.943 33.2179 148.092 33.5054 148.369 33.7259C148.646 33.9464 148.975 34.0567 149.357 34.0567C149.661 34.0567 149.929 33.9896 150.161 33.8556C150.397 33.7185 150.58 33.5293 150.711 33.2879C150.845 33.0436 150.912 32.7635 150.912 32.4477C150.912 32.1258 150.843 31.8428 150.706 31.5984C150.572 31.3541 150.386 31.1634 150.148 31.0263C149.909 30.8893 149.637 30.8193 149.33 30.8163C149.062 30.8163 148.801 30.8714 148.548 30.9816C148.297 31.0919 148.102 31.2424 147.962 31.4331L146.241 31.1247L146.675 26.2976H152.271V27.8798H148.271L148.034 30.1727H148.087C148.248 29.9462 148.491 29.7585 148.816 29.6095C149.141 29.4605 149.504 29.386 149.906 29.386C150.458 29.386 150.949 29.5156 151.381 29.7749C151.813 30.0341 152.155 30.3902 152.405 30.8431C152.655 31.293 152.779 31.8115 152.776 32.3985C152.779 33.0153 152.636 33.5635 152.347 34.0433C152.061 34.52 151.66 34.8955 151.144 35.1696C150.632 35.4407 150.036 35.5763 149.357 35.5763ZM157.715 35.6523C156.946 35.6493 156.284 35.4601 155.73 35.0847C155.179 34.7092 154.754 34.1654 154.456 33.4533C154.161 32.7411 154.015 31.8845 154.018 30.8833C154.018 29.8851 154.166 29.0344 154.461 28.3312C154.759 27.628 155.183 27.0932 155.735 26.7267C156.289 26.3572 156.949 26.1724 157.715 26.1724C158.48 26.1724 159.139 26.3572 159.69 26.7267C160.244 27.0961 160.67 27.6325 160.968 28.3357C161.266 29.0359 161.414 29.8851 161.411 30.8833C161.411 31.8875 161.262 32.7456 160.964 33.4578C160.669 34.1699 160.246 34.7137 159.695 35.0891C159.143 35.4646 158.483 35.6523 157.715 35.6523ZM157.715 34.0477C158.239 34.0477 158.658 33.784 158.971 33.2566C159.283 32.7292 159.438 31.9381 159.435 30.8833C159.435 30.1891 159.364 29.611 159.221 29.1491C159.081 28.6873 158.881 28.3402 158.622 28.1077C158.366 27.8753 158.063 27.7591 157.715 27.7591C157.193 27.7591 156.776 28.0198 156.463 28.5413C156.15 29.0627 155.992 29.8434 155.989 30.8833C155.989 31.5865 156.059 32.1735 156.199 32.6443C156.342 33.1121 156.544 33.4637 156.803 33.6991C157.062 33.9315 157.366 34.0477 157.715 34.0477ZM166.38 35.6523C165.611 35.6493 164.95 35.4601 164.395 35.0847C163.844 34.7092 163.42 34.1654 163.122 33.4533C162.827 32.7411 162.681 31.8845 162.684 30.8833C162.684 29.8851 162.831 29.0344 163.126 28.3312C163.424 27.628 163.849 27.0932 164.4 26.7267C164.954 26.3572 165.614 26.1724 166.38 26.1724C167.146 26.1724 167.804 26.3572 168.355 26.7267C168.91 27.0961 169.336 27.6325 169.634 28.3357C169.932 29.0359 170.079 29.8851 170.076 30.8833C170.076 31.8875 169.927 32.7456 169.629 33.4578C169.334 34.1699 168.911 34.7137 168.36 35.0891C167.809 35.4646 167.149 35.6523 166.38 35.6523ZM166.38 34.0477C166.904 34.0477 167.323 33.784 167.636 33.2566C167.949 32.7292 168.104 31.9381 168.101 30.8833C168.101 30.1891 168.029 29.611 167.886 29.1491C167.746 28.6873 167.546 28.3402 167.287 28.1077C167.031 27.8753 166.729 27.7591 166.38 27.7591C165.858 27.7591 165.441 28.0198 165.128 28.5413C164.816 29.0627 164.658 29.8434 164.655 30.8833C164.655 31.5865 164.725 32.1735 164.865 32.6443C165.008 33.1121 165.209 33.4637 165.468 33.6991C165.727 33.9315 166.031 34.0477 166.38 34.0477Z" fill="#FCFCFC"/>
<path d="M151.669 47.4512V42.8744H152.637V46.6534H154.599V47.4512H151.669ZM155.743 47.4512V42.8744H157.576C157.913 42.8744 158.193 42.9243 158.418 43.0241C158.643 43.1239 158.812 43.2625 158.926 43.4398C159.039 43.6156 159.095 43.8182 159.095 44.0476C159.095 44.2264 159.06 44.3836 158.988 44.5192C158.917 44.6532 158.818 44.7635 158.693 44.8499C158.57 44.9348 158.428 44.9952 158.269 45.0309V45.0756C158.443 45.0831 158.606 45.1322 158.758 45.2231C158.911 45.314 159.036 45.4414 159.131 45.6053C159.227 45.7677 159.274 45.9613 159.274 46.1863C159.274 46.4291 159.214 46.6459 159.093 46.8366C158.974 47.0258 158.797 47.1756 158.564 47.2858C158.33 47.396 158.041 47.4512 157.699 47.4512H155.743ZM156.711 46.6601H157.5C157.769 46.6601 157.966 46.6087 158.09 46.5059C158.213 46.4016 158.275 46.263 158.275 46.0902C158.275 45.9636 158.245 45.8518 158.184 45.755C158.123 45.6581 158.035 45.5822 157.922 45.527C157.81 45.4719 157.677 45.4444 157.522 45.4444H156.711V46.6601ZM156.711 44.7896H157.428C157.561 44.7896 157.679 44.7665 157.781 44.7203C157.886 44.6726 157.968 44.6056 158.027 44.5192C158.088 44.4328 158.119 44.3292 158.119 44.2085C158.119 44.0432 158.06 43.9098 157.942 43.8085C157.826 43.7072 157.661 43.6565 157.446 43.6565H156.711V44.7896ZM162.89 44.1907C162.872 44.0104 162.796 43.8703 162.66 43.7705C162.524 43.6707 162.34 43.6208 162.108 43.6208C161.95 43.6208 161.817 43.6431 161.708 43.6878C161.599 43.731 161.516 43.7914 161.458 43.8688C161.401 43.9463 161.373 44.0342 161.373 44.1325C161.37 44.2145 161.387 44.286 161.424 44.3471C161.463 44.4082 161.516 44.4611 161.583 44.5058C161.65 44.549 161.727 44.587 161.815 44.6197C161.903 44.651 161.997 44.6778 162.097 44.7002L162.508 44.7985C162.708 44.8432 162.891 44.9028 163.058 44.9773C163.225 45.0518 163.369 45.1434 163.491 45.2522C163.613 45.3609 163.708 45.4891 163.775 45.6365C163.844 45.784 163.879 45.9531 163.88 46.1438C163.879 46.4239 163.807 46.6668 163.666 46.8724C163.526 47.0765 163.323 47.2351 163.058 47.3484C162.794 47.4601 162.476 47.516 162.104 47.516C161.734 47.516 161.412 47.4594 161.138 47.3461C160.865 47.2329 160.652 47.0653 160.499 46.8433C160.347 46.6198 160.267 46.3435 160.26 46.0142H161.196C161.207 46.1677 161.251 46.2958 161.328 46.3986C161.407 46.4999 161.512 46.5766 161.643 46.6288C161.776 46.6794 161.925 46.7048 162.092 46.7048C162.256 46.7048 162.399 46.6809 162.519 46.6332C162.641 46.5856 162.736 46.5193 162.803 46.4344C162.87 46.3494 162.904 46.2518 162.904 46.1416C162.904 46.0388 162.873 45.9524 162.812 45.8824C162.752 45.8123 162.664 45.7528 162.548 45.7036C162.434 45.6544 162.293 45.6097 162.126 45.5695L161.628 45.4444C161.242 45.3505 160.937 45.2037 160.713 45.0041C160.49 44.8045 160.379 44.5356 160.381 44.1974C160.379 43.9202 160.453 43.6781 160.602 43.4711C160.752 43.264 160.959 43.1023 161.221 42.9861C161.483 42.8699 161.781 42.8118 162.115 42.8118C162.454 42.8118 162.751 42.8699 163.004 42.9861C163.259 43.1023 163.457 43.264 163.599 43.4711C163.74 43.6781 163.813 43.918 163.818 44.1907H162.89Z" fill="#70707B"/>
<mask id="path-10-inside-1_10376_130748" fill="white">
<path d="M195.715 14.7959H220.887C223.668 14.7959 225.922 17.0499 225.922 19.8304V55.0717C225.922 57.8521 223.668 60.1062 220.887 60.1062H195.715V14.7959Z"/>
</mask>
<path d="M195.715 14.7959H220.887C223.668 14.7959 225.922 17.0499 225.922 19.8304V55.0717C225.922 57.8521 223.668 60.1062 220.887 60.1062H195.715V14.7959Z" fill="#00D68F"/>
<g clip-path="url(#clip0_10376_130748)">
<path d="M213.335 35.5635L209.874 39.0247L208.301 37.4514" stroke="#18181B" stroke-width="1.25862" stroke-linecap="round" stroke-linejoin="round"/>
</g>
<path d="M195.715 14.7959H225.922H195.715ZM225.922 60.1062H195.715H225.922ZM195.086 60.1062V14.7959H196.344V60.1062H195.086ZM225.922 14.7959V60.1062V14.7959Z" fill="#26272B" mask="url(#path-10-inside-1_10376_130748)"/>
<rect x="10.0684" y="65.1406" width="215.853" height="22.0689" rx="5.03447" fill="url(#paint0_linear_10376_130748)"/>
<path d="M98.8287 72.6827V78.1748H97.6675V73.7848H97.6354L96.3776 74.5733V73.5435L97.7373 72.6827H98.8287ZM101.417 77.5366C101.24 77.5366 101.088 77.474 100.961 77.3488C100.836 77.2237 100.773 77.0717 100.773 76.8929C100.773 76.7177 100.836 76.5676 100.961 76.4424C101.088 76.3173 101.24 76.2547 101.417 76.2547C101.588 76.2547 101.738 76.3173 101.867 76.4424C101.996 76.5676 102.06 76.7177 102.06 76.8929C102.06 77.0109 102.03 77.1191 101.969 77.2174C101.91 77.314 101.832 77.3917 101.736 77.4507C101.639 77.508 101.533 77.5366 101.417 77.5366ZM101.417 74.8414C101.24 74.8414 101.088 74.7789 100.961 74.6537C100.836 74.5286 100.773 74.3766 100.773 74.1978C100.773 74.0226 100.836 73.8733 100.961 73.75C101.088 73.6248 101.24 73.5623 101.417 73.5623C101.588 73.5623 101.738 73.6248 101.867 73.75C101.996 73.8733 102.06 74.0226 102.06 74.1978C102.06 74.3176 102.03 74.4267 101.969 74.525C101.91 74.6215 101.832 74.6984 101.736 74.7556C101.639 74.8128 101.533 74.8414 101.417 74.8414ZM105.745 78.2955C105.284 78.2937 104.887 78.1802 104.554 77.9549C104.224 77.7296 103.969 77.4034 103.79 76.9761C103.613 76.5488 103.525 76.0348 103.527 75.4341C103.527 74.8352 103.616 74.3248 103.793 73.9028C103.972 73.4809 104.226 73.16 104.557 72.9401C104.89 72.7184 105.286 72.6076 105.745 72.6076C106.204 72.6076 106.6 72.7184 106.93 72.9401C107.263 73.1618 107.519 73.4836 107.697 73.9055C107.876 74.3256 107.965 74.8352 107.963 75.4341C107.963 76.0366 107.873 76.5515 107.695 76.9788C107.518 77.406 107.264 77.7323 106.933 77.9576C106.602 78.1828 106.206 78.2955 105.745 78.2955ZM105.745 77.3327C106.06 77.3327 106.311 77.1745 106.499 76.8581C106.686 76.5416 106.779 76.067 106.777 75.4341C106.777 75.0175 106.735 74.6707 106.649 74.3936C106.565 74.1165 106.445 73.9082 106.289 73.7687C106.136 73.6293 105.954 73.5596 105.745 73.5596C105.432 73.5596 105.182 73.716 104.994 74.0289C104.806 74.3417 104.712 74.8101 104.71 75.4341C104.71 75.856 104.752 76.2082 104.836 76.4907C104.922 76.7714 105.042 76.9823 105.198 77.1236C105.353 77.263 105.536 77.3327 105.745 77.3327ZM111.548 78.2955C111.087 78.2937 110.69 78.1802 110.358 77.9549C110.027 77.7296 109.772 77.4034 109.593 76.9761C109.416 76.5488 109.329 76.0348 109.331 75.4341C109.331 74.8352 109.419 74.3248 109.596 73.9028C109.775 73.4809 110.03 73.16 110.36 72.9401C110.693 72.7184 111.089 72.6076 111.548 72.6076C112.008 72.6076 112.403 72.7184 112.734 72.9401C113.066 73.1618 113.322 73.4836 113.501 73.9055C113.679 74.3256 113.768 74.8352 113.766 75.4341C113.766 76.0366 113.677 76.5515 113.498 76.9788C113.321 77.406 113.067 77.7323 112.736 77.9576C112.406 78.1828 112.01 78.2955 111.548 78.2955ZM111.548 77.3327C111.863 77.3327 112.114 77.1745 112.302 76.8581C112.49 76.5416 112.583 76.067 112.581 75.4341C112.581 75.0175 112.538 74.6707 112.452 74.3936C112.368 74.1165 112.248 73.9082 112.093 73.7687C111.939 73.6293 111.758 73.5596 111.548 73.5596C111.235 73.5596 110.985 73.716 110.797 74.0289C110.61 74.3417 110.515 74.8101 110.513 75.4341C110.513 75.856 110.555 76.2082 110.639 76.4907C110.725 76.7714 110.846 76.9823 111.001 77.1236C111.157 77.263 111.339 77.3327 111.548 77.3327ZM117.582 78.1748V72.6827H119.749C120.164 72.6827 120.518 72.7568 120.811 72.9052C121.106 73.0518 121.33 73.2601 121.484 73.5301C121.64 73.7982 121.718 74.1138 121.718 74.4767C121.718 74.8414 121.639 75.1552 121.482 75.418C121.324 75.679 121.096 75.8793 120.798 76.0187C120.501 76.1582 120.142 76.2279 119.72 76.2279H118.269V75.2946H119.532C119.754 75.2946 119.938 75.2642 120.084 75.2035C120.231 75.1427 120.34 75.0515 120.412 74.9299C120.485 74.8084 120.522 74.6573 120.522 74.4767C120.522 74.2944 120.485 74.1406 120.412 74.0155C120.34 73.8903 120.23 73.7956 120.082 73.7312C119.935 73.6651 119.75 73.632 119.527 73.632H118.744V78.1748H117.582ZM120.548 75.6754L121.913 78.1748H120.631L119.296 75.6754H120.548ZM123.142 78.1748V72.6827H126.843V73.64H124.303V74.9487H126.653V75.9061H124.303V77.2174H126.854V78.1748H123.142ZM131.35 74.2622C131.328 74.0459 131.236 73.8778 131.074 73.758C130.911 73.6382 130.69 73.5783 130.411 73.5783C130.222 73.5783 130.062 73.6052 129.931 73.6588C129.801 73.7106 129.701 73.783 129.631 73.876C129.563 73.969 129.529 74.0745 129.529 74.1925C129.525 74.2908 129.546 74.3766 129.591 74.4499C129.637 74.5232 129.701 74.5867 129.781 74.6403C129.861 74.6922 129.954 74.7377 130.06 74.7771C130.165 74.8146 130.278 74.8468 130.398 74.8736L130.891 74.9916C131.131 75.0452 131.351 75.1168 131.551 75.2061C131.751 75.2955 131.925 75.4055 132.071 75.536C132.218 75.6665 132.331 75.8203 132.412 75.9973C132.494 76.1742 132.536 76.3772 132.538 76.606C132.536 76.9421 132.45 77.2335 132.28 77.4802C132.112 77.7252 131.869 77.9156 131.551 78.0514C131.234 78.1855 130.853 78.2526 130.406 78.2526C129.962 78.2526 129.576 78.1846 129.247 78.0488C128.92 77.9129 128.664 77.7118 128.48 77.4454C128.298 77.1772 128.202 76.8456 128.193 76.4505H129.317C129.33 76.6346 129.382 76.7884 129.475 76.9117C129.57 77.0333 129.696 77.1254 129.853 77.1879C130.012 77.2487 130.192 77.2791 130.392 77.2791C130.589 77.2791 130.76 77.2505 130.905 77.1933C131.051 77.1361 131.165 77.0565 131.245 76.9546C131.326 76.8527 131.366 76.7356 131.366 76.6033C131.366 76.48 131.329 76.3763 131.256 76.2922C131.184 76.2082 131.079 76.1367 130.939 76.0777C130.802 76.0187 130.633 75.9651 130.433 75.9168L129.835 75.7666C129.372 75.654 129.006 75.4779 128.738 75.2383C128.47 74.9988 128.336 74.6761 128.338 74.2702C128.336 73.9377 128.425 73.6472 128.604 73.3987C128.784 73.1502 129.032 72.9562 129.347 72.8167C129.661 72.6773 130.019 72.6076 130.419 72.6076C130.827 72.6076 131.183 72.6773 131.487 72.8167C131.792 72.9562 132.03 73.1502 132.2 73.3987C132.37 73.6472 132.457 73.935 132.463 74.2622H131.35ZM133.714 73.64V72.6827H138.224V73.64H136.543V78.1748H135.395V73.64H133.714Z" fill="#70707B"/>
<g opacity="0.3">
<rect x="10.383" y="92.5588" width="215.224" height="44.6809" rx="4.71982" fill="#18181B"/>
<mask id="path-16-inside-2_10376_130748" fill="white">
<path d="M10.0684 97.2786C10.0684 94.4981 12.3224 92.2441 15.1028 92.2441H35.2407V137.554H15.1028C12.3224 137.554 10.0684 135.3 10.0684 132.52V97.2786Z"/>
</mask>
<path d="M10.0684 97.2786C10.0684 94.4981 12.3224 92.2441 15.1028 92.2441H35.2407V137.554H15.1028C12.3224 137.554 10.0684 135.3 10.0684 132.52V97.2786Z" fill="#26272B"/>
<path d="M9.43905 97.2786C9.43905 94.1506 11.9748 91.6148 15.1028 91.6148H35.2407V92.8734H15.1028C12.6699 92.8734 10.6977 94.8457 10.6977 97.2786H9.43905ZM35.2407 138.184H15.1028C11.9748 138.184 9.43905 135.648 9.43905 132.52H10.6977C10.6977 134.953 12.6699 136.925 15.1028 136.925H35.2407V138.184ZM15.1028 138.184C11.9748 138.184 9.43905 135.648 9.43905 132.52V97.2786C9.43905 94.1506 11.9748 91.6148 15.1028 91.6148V92.8734C12.6699 92.8734 10.6977 94.8457 10.6977 97.2786V132.52C10.6977 134.953 12.6699 136.925 15.1028 136.925V138.184ZM35.2407 92.2441V137.554V92.2441Z" fill="#00D68F" mask="url(#path-16-inside-2_10376_130748)"/>
<line x1="196.029" y1="92.873" x2="196.029" y2="136.925" stroke="#26272B" stroke-width="0.629309"/>
<rect x="10.383" y="92.5588" width="215.224" height="44.6809" rx="4.71982" stroke="#00D68F" stroke-width="0.629309"/>
</g>
<defs>
<linearGradient id="paint0_linear_10376_130748" x1="10.0684" y1="76.1751" x2="225.921" y2="76.1751" gradientUnits="userSpaceOnUse">
<stop stop-color="#18181B" stop-opacity="0.3"/>
<stop offset="0.5" stop-color="#18181B"/>
<stop offset="1" stop-color="#18181B" stop-opacity="0.3"/>
</linearGradient>
<clipPath id="clip0_10376_130748">
<rect width="7.55171" height="7.55171" fill="white" transform="translate(207.043 33.6748)"/>
</clipPath>
</defs>
</svg>
